<?xml version="1.0" encoding="utf-8" ?>
<svg baseProfile="full" height="100%" version="1.1" width="100%" xmlns="http://www.w3.org/2000/svg" xmlns:ev="http://www.w3.org/2001/xml-events" xmlns:xlink="http://www.w3.org/1999/xlink">
  <defs/>
  <rect fill="none" height="200" rx="10" ry="10" stroke="black" width="1000" x="10" y="10"/>
  <g id="redshift-scale" stroke="black" stroke-width="1">
    <line x1="50" x2="950" y1="50" y2="50"/>
    <g id="redshift-majticks" stroke-width="1">
      <line x1="50.0" x2="50.0" y1="49.5" y2="56"/>
      <line x1="140.0" x2="140.0" y1="49.5" y2="56"/>
      <line x1="230.0" x2="230.0" y1="49.5" y2="56"/>
      <line x1="320.00000000000006" x2="320.00000000000006" y1="49.5" y2="56"/>
      <line x1="410.0" x2="410.0" y1="49.5" y2="56"/>
      <line x1="500.0" x2="500.0" y1="49.5" y2="56"/>
      <line x1="590.0000000000001" x2="590.0000000000001" y1="49.5" y2="56"/>
      <line x1="680.0000000000001" x2="680.0000000000001" y1="49.5" y2="56"/>
      <line x1="770.0" x2="770.0" y1="49.5" y2="56"/>
      <line x1="860.0" x2="860.0" y1="49.5" y2="56"/>
      <line x1="950.0" x2="950.0" y1="49.5" y2="56"/>
    </g>
    <g id="redshift-minticks">
      <line x1="50.0" x2="50.0" y1="50" y2="53"/>
      <line x1="68.0" x2="68.0" y1="50" y2="53"/>
      <line x1="86.0" x2="86.0" y1="50" y2="53"/>
      <line x1="104.0" x2="104.0" y1="50" y2="53"/>
      <line x1="122.0" x2="122.0" y1="50" y2="53"/>
      <line x1="140.0" x2="140.0" y1="50" y2="53"/>
      <line x1="158.0" x2="158.0" y1="50" y2="53"/>
      <line x1="176.0" x2="176.0" y1="50" y2="53"/>
      <line x1="194.0" x2="194.0" y1="50" y2="53"/>
      <line x1="212.0" x2="212.0" y1="50" y2="53"/>
      <line x1="230.0" x2="230.0" y1="50" y2="53"/>
      <line x1="248.0" x2="248.0" y1="50" y2="53"/>
      <line x1="266.0" x2="266.0" y1="50" y2="53"/>
      <line x1="284.0" x2="284.0" y1="50" y2="53"/>
      <line x1="302.0" x2="302.0" y1="50" y2="53"/>
      <line x1="320.0" x2="320.0" y1="50" y2="53"/>
      <line x1="338.0" x2="338.0" y1="50" y2="53"/>
      <line x1="356.0" x2="356.0" y1="50" y2="53"/>
      <line x1="374.0" x2="374.0" y1="50" y2="53"/>
      <line x1="392.0" x2="392.0" y1="50" y2="53"/>
      <line x1="410.0" x2="410.0" y1="50" y2="53"/>
      <line x1="428.0" x2="428.0" y1="50" y2="53"/>
      <line x1="446.0" x2="446.0" y1="50" y2="53"/>
      <line x1="464.0" x2="464.0" y1="50" y2="53"/>
      <line x1="482.0" x2="482.0" y1="50" y2="53"/>
      <line x1="500.0" x2="500.0" y1="50" y2="53"/>
      <line x1="518.0" x2="518.0" y1="50" y2="53"/>
      <line x1="536.0" x2="536.0" y1="50" y2="53"/>
      <line x1="554.0" x2="554.0" y1="50" y2="53"/>
      <line x1="572.0" x2="572.0" y1="50" y2="53"/>
      <line x1="590.0" x2="590.0" y1="50" y2="53"/>
      <line x1="608.0" x2="608.0" y1="50" y2="53"/>
      <line x1="626.0" x2="626.0" y1="50" y2="53"/>
      <line x1="644.0" x2="644.0" y1="50" y2="53"/>
      <line x1="662.0" x2="662.0" y1="50" y2="53"/>
      <line x1="680.0000000000001" x2="680.0000000000001" y1="50" y2="53"/>
      <line x1="698.0" x2="698.0" y1="50" y2="53"/>
      <line x1="716.0" x2="716.0" y1="50" y2="53"/>
      <line x1="734.0" x2="734.0" y1="50" y2="53"/>
      <line x1="752.0" x2="752.0" y1="50" y2="53"/>
      <line x1="770.0" x2="770.0" y1="50" y2="53"/>
      <line x1="788.0" x2="788.0" y1="50" y2="53"/>
      <line x1="806.0" x2="806.0" y1="50" y2="53"/>
      <line x1="824.0" x2="824.0" y1="50" y2="53"/>
      <line x1="842.0" x2="842.0" y1="50" y2="53"/>
      <line x1="860.0" x2="860.0" y1="50" y2="53"/>
      <line x1="878.0" x2="878.0" y1="50" y2="53"/>
      <line x1="896.0" x2="896.0" y1="50" y2="53"/>
      <line x1="914.0" x2="914.0" y1="50" y2="53"/>
      <line x1="932.0" x2="932.0" y1="50" y2="53"/>
      <line x1="950.0" x2="950.0" y1="50" y2="53"/>
    </g>
    <g id="redshift-labels" style="font-size:12;font-family:CMU Serif, Arial;stroke:none" text-anchor="middle">
      <text x="50.0" y="70">0.0</text>
      <text x="140.0" y="70">0.2</text>
      <text x="230.0" y="70">0.4</text>
      <text x="320.00000000000006" y="70">0.6</text>
      <text x="410.0" y="70">0.8</text>
      <text x="500.0" y="70">1.0</text>
      <text x="590.0000000000001" y="70">1.2</text>
      <text x="680.0000000000001" y="70">1.4</text>
      <text x="770.0" y="70">1.6</text>
      <text x="860.0" y="70">1.8</text>
      <text x="950.0" y="70">2.0</text>
    </g>
    <g id="redshift-title" style="font-size:12;font-family:CMU Serif, Arial;stroke:none" text-anchor="start">
      <text x="50" y="40">Redshift</text>
    </g>
  </g>
  <g id="age-scale" stroke="black" stroke-width="1">
    <line x1="50" x2="950" y1="100" y2="100"/>
    <g id="age-majticks" stroke-width="1">
      <line x1="1488.944368331678" x2="1488.944368331678" y1="99.5" y2="106"/>
      <line x1="778.687737957891" x2="778.687737957891" y1="99.5" y2="106"/>
      <line x1="485.0315650761704" x2="485.0315650761704" y1="99.5" y2="106"/>
      <line x1="314.26609624691" x2="314.26609624691" y1="99.5" y2="106"/>
      <line x1="198.15021974278181" x2="198.15021974278181" y1="99.5" y2="106"/>
      <line x1="111.77235935959376" x2="111.77235935959376" y1="99.5" y2="106"/>
      <line x1="53.05838126683562" x2="53.05838126683562" y1="99.5" y2="106"/>
    </g>
    <g id="age-minticks">
      <line x1="1488.944368331678" x2="1488.944368331678" y1="100" y2="103"/>
      <line x1="1371.536283096872" x2="1371.536283096872" y1="100" y2="103"/>
      <line x1="1270.5178857766684" x2="1270.5178857766684" y1="100" y2="103"/>
      <line x1="1182.4797172239068" x2="1182.4797172239068" y1="100" y2="103"/>
      <line x1="1104.9164972830617" x2="1104.9164972830617" y1="100" y2="103"/>
      <line x1="1035.9425730027126" x2="1035.9425730027126" y1="100" y2="103"/>
      <line x1="974.1092123097902" x2="974.1092123097902" y1="100" y2="103"/>
      <line x1="918.2834025705214" x2="918.2834025705214" y1="100" y2="103"/>
      <line x1="867.5652762497543" x2="867.5652762497543" y1="100" y2="103"/>
      <line x1="821.2302142700821" x2="821.2302142700821" y1="100" y2="103"/>
      <line x1="778.687737957891" x2="778.687737957891" y1="100" y2="103"/>
      <line x1="739.4513372971543" x2="739.4513372971543" y1="100" y2="103"/>
      <line x1="703.1162845281139" x2="703.1162845281139" y1="100" y2="103"/>
      <line x1="669.3429567868222" x2="669.3429567868222" y1="100" y2="103"/>
      <line x1="637.8440191467394" x2="637.8440191467394" y1="100" y2="103"/>
      <line x1="608.3746303029703" x2="608.3746303029703" y1="100" y2="103"/>
      <line x1="580.7247650021368" x2="580.7247650021368" y1="100" y2="103"/>
      <line x1="554.7131467690115" x2="554.7131467690115" y1="100" y2="103"/>
      <line x1="530.1824452660592" x2="530.1824452660592" y1="100" y2="103"/>
      <line x1="506.99537106402886" x2="506.99537106402886" y1="100" y2="103"/>
      <line x1="485.0315650761699" x2="485.0315650761699" y1="100" y2="103"/>
      <line x1="464.18500169538436" x2="464.18500169538436" y1="100" y2="103"/>
      <line x1="444.3619364784474" x2="444.3619364784474" y1="100" y2="103"/>
      <line x1="425.4791174380825" x2="425.4791174380825" y1="100" y2="103"/>
      <line x1="407.4623583427632" x2="407.4623583427632" y1="100" y2="103"/>
      <line x1="390.2453035535112" x2="390.2453035535112" y1="100" y2="103"/>
      <line x1="373.7684396238396" x2="373.7684396238396" y1="100" y2="103"/>
      <line x1="357.97818895694894" x2="357.97818895694894" y1="100" y2="103"/>
      <line x1="342.8262095761564" x2="342.8262095761564" y1="100" y2="103"/>
      <line x1="328.2687419346559" x2="328.2687419346559" y1="100" y2="103"/>
      <line x1="314.2660962469098" x2="314.2660962469098" y1="100" y2="103"/>
      <line x1="300.7821566495904" x2="300.7821566495904" y1="100" y2="103"/>
      <line x1="287.7840013709957" x2="287.7840013709957" y1="100" y2="103"/>
      <line x1="275.2415546639078" x2="275.2415546639078" y1="100" y2="103"/>
      <line x1="263.12727403327165" x2="263.12727403327165" y1="100" y2="103"/>
      <line x1="251.41589188406888" x2="251.41589188406888" y1="100" y2="103"/>
      <line x1="240.08418327621658" x2="240.08418327621658" y1="100" y2="103"/>
      <line x1="229.1107584788491" x2="229.1107584788491" y1="100" y2="103"/>
      <line x1="218.47588672484702" x2="218.47588672484702" y1="100" y2="103"/>
      <line x1="208.16133215724818" x2="208.16133215724818" y1="100" y2="103"/>
      <line x1="198.1502197427814" x2="198.1502197427814" y1="100" y2="103"/>
      <line x1="188.42691613298635" x2="188.42691613298635" y1="100" y2="103"/>
      <line x1="178.9768913072665" x2="178.9768913072665" y1="100" y2="103"/>
      <line x1="169.78665327662543" x2="169.78665327662543" y1="100" y2="103"/>
      <line x1="160.84362719667376" x2="160.84362719667376" y1="100" y2="103"/>
      <line x1="152.13610793110087" x2="152.13610793110087" y1="100" y2="103"/>
      <line x1="143.6531621209033" x2="143.6531621209033" y1="100" y2="103"/>
      <line x1="135.38457194264515" x2="135.38457194264515" y1="100" y2="103"/>
      <line x1="127.32078170149015" x2="127.32078170149015" y1="100" y2="103"/>
      <line x1="119.452843341926" x2="119.452843341926" y1="100" y2="103"/>
      <line x1="111.77235935959294" x2="111.77235935959294" y1="100" y2="103"/>
      <line x1="104.27145833938465" x2="104.27145833938465" y1="100" y2="103"/>
      <line x1="96.94273231082104" x2="96.94273231082104" y1="100" y2="103"/>
      <line x1="89.77922663764981" x2="89.77922663764981" y1="100" y2="103"/>
      <line x1="82.77438045626819" x2="82.77438045626819" y1="100" y2="103"/>
      <line x1="75.92202240957289" x2="75.92202240957289" y1="100" y2="103"/>
      <line x1="69.21632669331312" x2="69.21632669331312" y1="100" y2="103"/>
      <line x1="62.651791446061054" x2="62.651791446061054" y1="100" y2="103"/>
      <line x1="56.22322242832145" x2="56.22322242832145" y1="100" y2="103"/>
    </g>
    <g id="age-labels" style="font-size:12;font-family:CMU Serif, Arial;stroke:none" text-anchor="middle">
      <text x="1488.944368331678" y="120">2</text>
      <text x="778.687737957891" y="120">4</text>
      <text x="485.0315650761704" y="120">6</text>
      <text x="314.26609624691" y="120">8</text>
      <text x="198.15021974278181" y="120">10</text>
      <text x="111.77235935959376" y="120">12</text>
      <text x="53.05838126683562" y="120">13.7</text>
    </g>
    <g id="age-title" style="font-size:12;font-family:CMU Serif, Arial;stroke:none" text-anchor="start">
      <text x="50" y="90">Age [Gyr]</text>
    </g>
  </g>
</svg>
