<?xml version="1.0" encoding="utf-8" ?>
<svg baseProfile="full" height="100%" version="1.1" width="100%" xmlns="http://www.w3.org/2000/svg" xmlns:ev="http://www.w3.org/2001/xml-events" xmlns:xlink="http://www.w3.org/1999/xlink">
  <defs/>
  <rect fill="none" height="200" rx="10" ry="10" stroke="black" width="1000" x="10" y="10"/>
  <g id="redshift-scale">
    <line style="stroke:black;stroke-width:0.5" x1="49.75" x2="980.25" y1="40" y2="40"/>
    <g id="redshift-majticks" stroke="black" stroke-width="0.5">
      <line x1="50.0" x2="50.0" y1="39.75" y2="48.0"/>
      <line x1="115.76093065034893" x2="115.76093065034893" y1="39.75" y2="48.0"/>
      <line x1="143.0" x2="143.0" y1="39.75" y2="48.0"/>
      <line x1="181.52186130069785" x2="181.52186130069785" y1="39.75" y2="48.0"/>
      <line x1="211.08072510390556" x2="211.08072510390556" y1="39.75" y2="48.0"/>
      <line x1="235.99999999999997" x2="235.99999999999997" y1="39.75" y2="48.0"/>
      <line x1="257.95432190748045" x2="257.95432190748045" y1="39.75" y2="48.0"/>
      <line x1="344.0918223956592" x2="344.0918223956592" y1="39.75" y2="48.0"/>
      <line x1="465.9086438149609" x2="465.9086438149609" y1="39.75" y2="48.0"/>
      <line x1="559.3819784798045" x2="559.3819784798045" y1="39.75" y2="48.0"/>
      <line x1="638.1836447913184" x2="638.1836447913184" y1="39.75" y2="48.0"/>
      <line x1="707.6093065034892" x2="707.6093065034892" y1="39.75" y2="48.0"/>
      <line x1="980.0" x2="980.0" y1="39.75" y2="48.0"/>
    </g>
    <g id="redshift-medticks" stroke="black" stroke-width="0.5">
      <line x1="96.5" x2="96.5" y1="39.75" y2="46.0"/>
      <line x1="130.5403625519528" x2="130.5403625519528" y1="39.75" y2="46.0"/>
      <line x1="163.9012730394178" x2="163.9012730394178" y1="39.75" y2="46.0"/>
      <line x1="197.0459111978296" x2="197.0459111978296" y1="39.75" y2="46.0"/>
      <line x1="223.9870684849883" x2="223.9870684849883" y1="39.75" y2="46.0"/>
      <line x1="247.28279195104673" x2="247.28279195104673" y1="39.75" y2="46.0"/>
      <line x1="304.69098923990225" x2="304.69098923990225" y1="39.75" y2="46.0"/>
      <line x1="410.18745119728976" x2="410.18745119728976" y1="39.75" y2="46.0"/>
      <line x1="515.0" x2="515.0" y1="39.75" y2="46.0"/>
      <line x1="600.1954198282643" x2="600.1954198282643" y1="39.75" y2="46.0"/>
      <line x1="673.8629657224412" x2="673.8629657224412" y1="39.75" y2="46.0"/>
      <line x1="855.4036255195277" x2="855.4036255195277" y1="39.75" y2="46.0"/>
    </g>
    <g id="redshift-minticks" stroke="black" stroke-width="0.5">
      <line x1="70.79543219074804" x2="70.79543219074804" y1="39.75" y2="44.0"/>
      <line x1="79.40918223956592" x2="79.40918223956592" y1="39.75" y2="44.0"/>
      <line x1="86.01874511972898" x2="86.01874511972898" y1="39.75" y2="44.0"/>
      <line x1="91.59086438149609" x2="91.59086438149609" y1="39.75" y2="44.0"/>
      <line x1="96.5" x2="96.5" y1="39.75" y2="44.0"/>
      <line x1="100.93819784798043" x2="100.93819784798043" y1="39.75" y2="44.0"/>
      <line x1="105.01954198282642" x2="105.01954198282642" y1="39.75" y2="44.0"/>
      <line x1="108.81836447913184" x2="108.81836447913184" y1="39.75" y2="44.0"/>
      <line x1="112.38629657224413" x2="112.38629657224413" y1="39.75" y2="44.0"/>
      <line x1="118.97064592998966" x2="118.97064592998966" y1="39.75" y2="44.0"/>
      <line x1="122.03749023945795" x2="122.03749023945795" y1="39.75" y2="44.0"/>
      <line x1="124.97899705917652" x2="124.97899705917652" y1="39.75" y2="44.0"/>
      <line x1="127.80938246766902" x2="127.80938246766902" y1="39.75" y2="44.0"/>
      <line x1="130.5403625519528" x2="130.5403625519528" y1="39.75" y2="44.0"/>
      <line x1="133.18172876299218" x2="133.18172876299218" y1="39.75" y2="44.0"/>
      <line x1="135.74176345282385" x2="135.74176345282385" y1="39.75" y2="44.0"/>
      <line x1="138.2275467186978" x2="138.2275467186978" y1="39.75" y2="44.0"/>
      <line x1="140.64518740672338" x2="140.64518740672338" y1="39.75" y2="44.0"/>
      <line x1="147.53922287982408" x2="147.53922287982408" y1="39.75" y2="44.0"/>
      <line x1="151.87639569596087" x2="151.87639569596087" y1="39.75" y2="44.0"/>
      <line x1="156.03631453421983" x2="156.03631453421983" y1="39.75" y2="44.0"/>
      <line x1="160.03908396565285" x2="160.03908396565285" y1="39.75" y2="44.0"/>
      <line x1="163.9012730394178" x2="163.9012730394178" y1="39.75" y2="44.0"/>
      <line x1="167.6367289582637" x2="167.6367289582637" y1="39.75" y2="44.0"/>
      <line x1="171.25716473676925" x2="171.25716473676925" y1="39.75" y2="44.0"/>
      <line x1="174.77259314448827" x2="174.77259314448827" y1="39.75" y2="44.0"/>
      <line x1="178.19165339443907" x2="178.19165339443907" y1="39.75" y2="44.0"/>
      <line x1="184.76980373956178" x2="184.76980373956178" y1="39.75" y2="44.0"/>
      <line x1="187.94129185997932" x2="187.94129185997932" y1="39.75" y2="44.0"/>
      <line x1="191.0414832593588" x2="191.0414832593588" y1="39.75" y2="44.0"/>
      <line x1="194.0749804789159" x2="194.0749804789159" y1="39.75" y2="44.0"/>
      <line x1="197.0459111978296" x2="197.0459111978296" y1="39.75" y2="44.0"/>
      <line x1="199.957994118353" x2="199.957994118353" y1="39.75" y2="44.0"/>
      <line x1="202.81459354394133" x2="202.81459354394133" y1="39.75" y2="44.0"/>
      <line x1="205.61876493533802" x2="205.61876493533802" y1="39.75" y2="44.0"/>
      <line x1="208.3732932031155" x2="208.3732932031155" y1="39.75" y2="44.0"/>
      <line x1="213.74339681342877" x2="213.74339681342877" y1="39.75" y2="44.0"/>
      <line x1="216.36345752598433" x2="216.36345752598433" y1="39.75" y2="44.0"/>
      <line x1="218.94288975864004" x2="218.94288975864004" y1="39.75" y2="44.0"/>
      <line x1="221.4835269056477" x2="221.4835269056477" y1="39.75" y2="44.0"/>
      <line x1="223.9870684849883" x2="223.9870684849883" y1="39.75" y2="44.0"/>
      <line x1="226.45509343739556" x2="226.45509343739556" y1="39.75" y2="44.0"/>
      <line x1="228.88907177354352" x2="228.88907177354352" y1="39.75" y2="44.0"/>
      <line x1="231.29037481344673" x2="231.29037481344673" y1="39.75" y2="44.0"/>
      <line x1="233.66028422062294" x2="233.66028422062294" y1="39.75" y2="44.0"/>
      <line x1="238.31064760124426" x2="238.31064760124426" y1="39.75" y2="44.0"/>
      <line x1="240.59328424684853" x2="240.59328424684853" y1="39.75" y2="44.0"/>
      <line x1="242.8489045859478" x2="242.8489045859478" y1="39.75" y2="44.0"/>
      <line x1="245.07844575964816" x2="245.07844575964816" y1="39.75" y2="44.0"/>
      <line x1="247.28279195104673" x2="247.28279195104673" y1="39.75" y2="44.0"/>
      <line x1="249.4627784826031" x2="249.4627784826031" y1="39.75" y2="44.0"/>
      <line x1="251.6191955147128" x2="251.6191955147128" y1="39.75" y2="44.0"/>
      <line x1="253.75279139192176" x2="253.75279139192176" y1="39.75" y2="44.0"/>
      <line x1="255.86427567696148" x2="255.86427567696148" y1="39.75" y2="44.0"/>
      <line x1="268.10433283178946" x2="268.10433283178946" y1="39.75" y2="44.0"/>
      <line x1="277.8025460788356" x2="277.8025460788356" y1="39.75" y2="44.0"/>
      <line x1="287.10440738206455" x2="287.10440738206455" y1="39.75" y2="44.0"/>
      <line x1="296.05487192900694" x2="296.05487192900694" y1="39.75" y2="44.0"/>
      <line x1="304.69098923990225" x2="304.69098923990225" y1="39.75" y2="44.0"/>
      <line x1="313.0437226013957" x2="313.0437226013957" y1="39.75" y2="44.0"/>
      <line x1="321.13926311030644" x2="321.13926311030644" y1="39.75" y2="44.0"/>
      <line x1="329.0" x2="329.0" y1="39.75" y2="44.0"/>
      <line x1="336.64525113805735" x2="336.64525113805735" y1="39.75" y2="44.0"/>
      <line x1="358.4461055030522" x2="358.4461055030522" y1="39.75" y2="44.0"/>
      <line x1="372.1614502078112" x2="372.1614502078112" y1="39.75" y2="44.0"/>
      <line x1="385.31626861815096" x2="385.31626861815096" y1="39.75" y2="44.0"/>
      <line x1="397.9741369699766" x2="397.9741369699766" y1="39.75" y2="44.0"/>
      <line x1="410.18745119728976" x2="410.18745119728976" y1="39.75" y2="44.0"/>
      <line x1="421.99999999999994" x2="421.99999999999994" y1="39.75" y2="44.0"/>
      <line x1="433.4488231824424" x2="433.4488231824424" y1="39.75" y2="44.0"/>
      <line x1="444.56558390209346" x2="444.56558390209346" y1="39.75" y2="44.0"/>
      <line x1="455.37760174928263" x2="455.37760174928263" y1="39.75" y2="44.0"/>
      <line x1="476.1795396308931" x2="476.1795396308931" y1="39.75" y2="44.0"/>
      <line x1="486.2086656635789" x2="486.2086656635789" y1="39.75" y2="44.0"/>
      <line x1="496.0123316680829" x2="496.0123316680829" y1="39.75" y2="44.0"/>
      <line x1="505.6050921576711" x2="505.6050921576711" y1="39.75" y2="44.0"/>
      <line x1="515.0" x2="515.0" y1="39.75" y2="44.0"/>
      <line x1="524.2088147641291" x2="524.2088147641291" y1="39.75" y2="44.0"/>
      <line x1="533.2421753117167" x2="533.2421753117167" y1="39.75" y2="44.0"/>
      <line x1="542.1097438580139" x2="542.1097438580139" y1="39.75" y2="44.0"/>
      <line x1="550.8203270635088" x2="550.8203270635088" y1="39.75" y2="44.0"/>
      <line x1="567.802085743192" x2="567.802085743192" y1="39.75" y2="44.0"/>
      <line x1="576.0874452027914" x2="576.0874452027914" y1="39.75" y2="44.0"/>
      <line x1="584.2443261280366" x2="584.2443261280366" y1="39.75" y2="44.0"/>
      <line x1="592.2785262206129" x2="592.2785262206129" y1="39.75" y2="44.0"/>
      <line x1="600.1954198282643" x2="600.1954198282643" y1="39.75" y2="44.0"/>
      <line x1="608.0" x2="608.0" y1="39.75" y2="44.0"/>
      <line x1="615.6969153177344" x2="615.6969153177344" y1="39.75" y2="44.0"/>
      <line x1="623.2905022761147" x2="623.2905022761147" y1="39.75" y2="44.0"/>
      <line x1="630.784813851051" x2="630.784813851051" y1="39.75" y2="44.0"/>
      <line x1="645.4905540812549" x2="645.4905540812549" y1="39.75" y2="44.0"/>
      <line x1="652.708884951931" x2="652.708884951931" y1="39.75" y2="44.0"/>
      <line x1="659.841782760086" x2="659.841782760086" y1="39.75" y2="44.0"/>
      <line x1="666.8922110061044" x2="666.8922110061044" y1="39.75" y2="44.0"/>
      <line x1="673.8629657224412" x2="673.8629657224412" y1="39.75" y2="44.0"/>
      <line x1="680.7566884306499" x2="680.7566884306499" y1="39.75" y2="44.0"/>
      <line x1="687.5758778372971" x2="687.5758778372971" y1="39.75" y2="44.0"/>
      <line x1="694.3229004156223" x2="694.3229004156223" y1="39.75" y2="44.0"/>
      <line x1="701.0" x2="701.0" y1="39.75" y2="44.0"/>
      <line x1="739.7064592998967" x2="739.7064592998967" y1="39.75" y2="44.0"/>
      <line x1="770.3749023945794" x2="770.3749023945794" y1="39.75" y2="44.0"/>
      <line x1="799.789970591765" x2="799.789970591765" y1="39.75" y2="44.0"/>
      <line x1="828.0938246766901" x2="828.0938246766901" y1="39.75" y2="44.0"/>
      <line x1="855.4036255195277" x2="855.4036255195277" y1="39.75" y2="44.0"/>
      <line x1="881.8172876299218" x2="881.8172876299218" y1="39.75" y2="44.0"/>
      <line x1="907.4176345282384" x2="907.4176345282384" y1="39.75" y2="44.0"/>
      <line x1="932.2754671869778" x2="932.2754671869778" y1="39.75" y2="44.0"/>
      <line x1="956.4518740672335" x2="956.4518740672335" y1="39.75" y2="44.0"/>
    </g>
    <g id="redshift-labels" style="font-size:10;font-family:Helvetica Neue">
      <text alignment-baseline="hanging" text-anchor="middle" x="50.0" y="51.0">0.0</text>
      <text alignment-baseline="hanging" text-anchor="middle" x="115.76093065034893" y="51.0">0.01</text>
      <text alignment-baseline="hanging" text-anchor="middle" x="143.0" y="51.0">0.02</text>
      <text alignment-baseline="hanging" text-anchor="middle" x="181.52186130069785" y="51.0">0.04</text>
      <text alignment-baseline="hanging" text-anchor="middle" x="211.08072510390556" y="51.0">0.06</text>
      <text alignment-baseline="hanging" text-anchor="middle" x="235.99999999999997" y="51.0">0.08</text>
      <text alignment-baseline="hanging" text-anchor="middle" x="257.95432190748045" y="51.0">0.1</text>
      <text alignment-baseline="hanging" text-anchor="middle" x="344.0918223956592" y="51.0">0.2</text>
      <text alignment-baseline="hanging" text-anchor="middle" x="465.9086438149609" y="51.0">0.4</text>
      <text alignment-baseline="hanging" text-anchor="middle" x="559.3819784798045" y="51.0">0.6</text>
      <text alignment-baseline="hanging" text-anchor="middle" x="638.1836447913184" y="51.0">0.8</text>
      <text alignment-baseline="hanging" text-anchor="middle" x="707.6093065034892" y="51.0">1.0</text>
      <text alignment-baseline="hanging" text-anchor="middle" x="980.0" y="51.0">2.0</text>
    </g>
    <g id="redshift-title" style="font-size:12;font-family:CMU Serif" text-anchor="start">
      <text alignment-baseline="auto" x="50" y="35.0">Redshift</text>
    </g>
  </g>
  <g id="lbt-scale">
    <line style="stroke:black;stroke-width:0.5" x1="49.75" x2="980.25" y1="80" y2="80"/>
    <g id="lbt-majticks" stroke="black" stroke-width="0.5">
      <line x1="50.0" x2="50.0" y1="79.75" y2="88.0"/>
      <line x1="227.69503301936024" x2="227.69503301936024" y1="79.75" y2="88.0"/>
      <line x1="308.52119791666524" x2="308.52119791666524" y1="79.75" y2="88.0"/>
      <line x1="376.5299166541721" x2="376.5299166541721" y1="79.75" y2="88.0"/>
      <line x1="440.0120676843936" x2="440.0120676843936" y1="79.75" y2="88.0"/>
      <line x1="502.71593382525714" x2="502.71593382525714" y1="79.75" y2="88.0"/>
      <line x1="567.2811242236777" x2="567.2811242236777" y1="79.75" y2="88.0"/>
      <line x1="636.2789492964704" x2="636.2789492964704" y1="79.75" y2="88.0"/>
      <line x1="712.8958876520333" x2="712.8958876520333" y1="79.75" y2="88.0"/>
      <line x1="801.8423468106676" x2="801.8423468106676" y1="79.75" y2="88.0"/>
      <line x1="911.1970697413109" x2="911.1970697413109" y1="79.75" y2="88.0"/>
    </g>
    <g id="lbt-medticks" stroke="black" stroke-width="0.5">
      <line x1="270.6741962063347" x2="270.6741962063347" y1="79.75" y2="86.0"/>
      <line x1="343.42319282331454" x2="343.42319282331454" y1="79.75" y2="86.0"/>
      <line x1="408.5578977432713" x2="408.5578977432713" y1="79.75" y2="86.0"/>
      <line x1="471.28616105458053" x2="471.28616105458053" y1="79.75" y2="86.0"/>
      <line x1="534.6116194347017" x2="534.6116194347017" y1="79.75" y2="86.0"/>
      <line x1="601.0495798155002" x2="601.0495798155002" y1="79.75" y2="86.0"/>
      <line x1="673.3908183579892" x2="673.3908183579892" y1="79.75" y2="86.0"/>
      <line x1="755.4353082503073" x2="755.4353082503073" y1="79.75" y2="86.0"/>
      <line x1="853.2391026262322" x2="853.2391026262322" y1="79.75" y2="86.0"/>
    </g>
    <g id="lbt-minticks" stroke="black" stroke-width="0.5">
      <line x1="236.87844786152232" x2="236.87844786152232" y1="79.75" y2="84.0"/>
      <line x1="245.72675500257824" x2="245.72675500257824" y1="79.75" y2="84.0"/>
      <line x1="254.28534346643" x2="254.28534346643" y1="79.75" y2="84.0"/>
      <line x1="262.5910319706993" x2="262.5910319706993" y1="79.75" y2="84.0"/>
      <line x1="270.6741962063347" x2="270.6741962063347" y1="79.75" y2="84.0"/>
      <line x1="278.56023984953777" x2="278.56023984953777" y1="79.75" y2="84.0"/>
      <line x1="286.27070599894705" x2="286.27070599894705" y1="79.75" y2="84.0"/>
      <line x1="293.8240426616021" x2="293.8240426616021" y1="79.75" y2="84.0"/>
      <line x1="301.2362245652089" x2="301.2362245652089" y1="79.75" y2="84.0"/>
      <line x1="315.69122792370416" x2="315.69122792370416" y1="79.75" y2="84.0"/>
      <line x1="322.75720546994813" x2="322.75720546994813" y1="79.75" y2="84.0"/>
      <line x1="329.72884691391914" x2="329.72884691391914" y1="79.75" y2="84.0"/>
      <line x1="336.61487861503525" x2="336.61487861503525" y1="79.75" y2="84.0"/>
      <line x1="343.42319282331454" x2="343.42319282331454" y1="79.75" y2="84.0"/>
      <line x1="350.1609614691689" x2="350.1609614691689" y1="79.75" y2="84.0"/>
      <line x1="356.83473181327406" x2="356.83473181327406" y1="79.75" y2="84.0"/>
      <line x1="363.45051654763205" x2="363.45051654763205" y1="79.75" y2="84.0"/>
      <line x1="370.01386567468506" x2="370.01386567468506" y1="79.75" y2="84.0"/>
      <line x1="383.00345512878823" x2="383.00345512878823" y1="79.75" y2="84.0"/>
      <line x1="389.43894254202866" x2="389.43894254202866" y1="79.75" y2="84.0"/>
      <line x1="395.8405801814929" x2="395.8405801814929" y1="79.75" y2="84.0"/>
      <line x1="402.2123201971825" x2="402.2123201971825" y1="79.75" y2="84.0"/>
      <line x1="408.5578977432713" x2="408.5578977432713" y1="79.75" y2="84.0"/>
      <line x1="414.880860728927" x2="414.880860728927" y1="79.75" y2="84.0"/>
      <line x1="421.1845932303088" x2="421.1845932303088" y1="79.75" y2="84.0"/>
      <line x1="427.4723192911182" x2="427.4723192911182" y1="79.75" y2="84.0"/>
      <line x1="433.7471508246977" x2="433.7471508246977" y1="79.75" y2="84.0"/>
      <line x1="446.26996214977004" x2="446.26996214977004" y1="79.75" y2="84.0"/>
      <line x1="452.5236260496151" x2="452.5236260496151" y1="79.75" y2="84.0"/>
      <line x1="458.7757867475733" x2="458.7757867475733" y1="79.75" y2="84.0"/>
      <line x1="465.0291003365964" x2="465.0291003365964" y1="79.75" y2="84.0"/>
      <line x1="471.28616105458053" x2="471.28616105458053" y1="79.75" y2="84.0"/>
      <line x1="477.5495352452491" x2="477.5495352452491" y1="79.75" y2="84.0"/>
      <line x1="483.8217216528629" x2="483.8217216528629" y1="79.75" y2="84.0"/>
      <line x1="490.1052126316352" x2="490.1052126316352" y1="79.75" y2="84.0"/>
      <line x1="496.40247126669226" x2="496.40247126669226" y1="79.75" y2="84.0"/>
      <line x1="509.04804107830057" x2="509.04804107830057" y1="79.75" y2="84.0"/>
      <line x1="515.401219533383" x2="515.401219533383" y1="79.75" y2="84.0"/>
      <line x1="521.7779140968324" x2="521.7779140968324" y1="79.75" y2="84.0"/>
      <line x1="528.1805589757917" x2="528.1805589757917" y1="79.75" y2="84.0"/>
      <line x1="534.6116194347017" x2="534.6116194347017" y1="79.75" y2="84.0"/>
      <line x1="541.073579692968" x2="541.073579692968" y1="79.75" y2="84.0"/>
      <line x1="547.5689444109719" x2="547.5689444109719" y1="79.75" y2="84.0"/>
      <line x1="554.1002623317031" x2="554.1002623317031" y1="79.75" y2="84.0"/>
      <line x1="560.6701142004395" x2="560.6701142004395" y1="79.75" y2="84.0"/>
      <line x1="573.9359771968576" x2="573.9359771968576" y1="79.75" y2="84.0"/>
      <line x1="580.6374142379913" x2="580.6374142379913" y1="79.75" y2="84.0"/>
      <line x1="587.3882258814552" x2="587.3882258814552" y1="79.75" y2="84.0"/>
      <line x1="594.1912963703963" x2="594.1912963703963" y1="79.75" y2="84.0"/>
      <line x1="601.0495798155002" x2="601.0495798155002" y1="79.75" y2="84.0"/>
      <line x1="607.9661099302023" x2="607.9661099302023" y1="79.75" y2="84.0"/>
      <line x1="614.9440192745334" x2="614.9440192745334" y1="79.75" y2="84.0"/>
      <line x1="621.9865486825614" x2="621.9865486825614" y1="79.75" y2="84.0"/>
      <line x1="629.0970339742008" x2="629.0970339742008" y1="79.75" y2="84.0"/>
      <line x1="643.5358842763461" x2="643.5358842763461" y1="79.75" y2="84.0"/>
      <line x1="650.8715692871561" x2="650.8715692871561" y1="79.75" y2="84.0"/>
      <line x1="658.2898934400155" x2="658.2898934400155" y1="79.75" y2="84.0"/>
      <line x1="665.7949058929775" x2="665.7949058929775" y1="79.75" y2="84.0"/>
      <line x1="673.3908183579892" x2="673.3908183579892" y1="79.75" y2="84.0"/>
      <line x1="681.0820580637903" x2="681.0820580637903" y1="79.75" y2="84.0"/>
      <line x1="688.8732229154527" x2="688.8732229154527" y1="79.75" y2="84.0"/>
      <line x1="696.7691650461742" x2="696.7691650461742" y1="79.75" y2="84.0"/>
      <line x1="704.7749353696643" x2="704.7749353696643" y1="79.75" y2="84.0"/>
      <line x1="721.1376057062218" x2="721.1376057062218" y1="79.75" y2="84.0"/>
      <line x1="729.5060088137859" x2="729.5060088137859" y1="79.75" y2="84.0"/>
      <line x1="738.0073094949752" x2="738.0073094949752" y1="79.75" y2="84.0"/>
      <line x1="746.6480923740809" x2="746.6480923740809" y1="79.75" y2="84.0"/>
      <line x1="755.4353082503073" x2="755.4353082503073" y1="79.75" y2="84.0"/>
      <line x1="764.3763368776584" x2="764.3763368776584" y1="79.75" y2="84.0"/>
      <line x1="773.4789810019497" x2="773.4789810019497" y1="79.75" y2="84.0"/>
      <line x1="782.7515470854231" x2="782.7515470854231" y1="79.75" y2="84.0"/>
      <line x1="792.2028652365626" x2="792.2028652365626" y1="79.75" y2="84.0"/>
      <line x1="811.6800195626445" x2="811.6800195626445" y1="79.75" y2="84.0"/>
      <line x1="821.7266244139531" x2="821.7266244139531" y1="79.75" y2="84.0"/>
      <line x1="831.9936438301573" x2="831.9936438301573" y1="79.75" y2="84.0"/>
      <line x1="842.4933919982857" x2="842.4933919982857" y1="79.75" y2="84.0"/>
      <line x1="853.2391026262322" x2="853.2391026262322" y1="79.75" y2="84.0"/>
      <line x1="864.2450151788419" x2="864.2450151788419" y1="79.75" y2="84.0"/>
      <line x1="875.5264845801681" x2="875.5264845801681" y1="79.75" y2="84.0"/>
      <line x1="887.1000942694769" x2="887.1000942694769" y1="79.75" y2="84.0"/>
      <line x1="898.9837939373831" x2="898.9837939373831" y1="79.75" y2="84.0"/>
    </g>
    <g id="lbt-labels" style="font-size:10;font-family:Helvetica Neue">
      <text alignment-baseline="hanging" text-anchor="middle" x="227.69503301936024" y="91.0">1</text>
      <text alignment-baseline="hanging" text-anchor="middle" x="308.52119791666524" y="91.0">2</text>
      <text alignment-baseline="hanging" text-anchor="middle" x="376.5299166541721" y="91.0">3</text>
      <text alignment-baseline="hanging" text-anchor="middle" x="440.0120676843936" y="91.0">4</text>
      <text alignment-baseline="hanging" text-anchor="middle" x="502.71593382525714" y="91.0">5</text>
      <text alignment-baseline="hanging" text-anchor="middle" x="567.2811242236777" y="91.0">6</text>
      <text alignment-baseline="hanging" text-anchor="middle" x="636.2789492964704" y="91.0">7</text>
      <text alignment-baseline="hanging" text-anchor="middle" x="712.8958876520333" y="91.0">8</text>
      <text alignment-baseline="hanging" text-anchor="middle" x="801.8423468106676" y="91.0">9</text>
      <text alignment-baseline="hanging" text-anchor="middle" x="911.1970697413109" y="91.0">10</text>
      <text alignment-baseline="hanging" text-anchor="middle" x="50.0" y="91.0">0</text>
    </g>
    <g id="lbt-title" style="font-size:12;font-family:CMU Serif" text-anchor="start">
      <text alignment-baseline="auto" x="50" y="75.0">Lookback Time [Gyr]</text>
    </g>
  </g>
  <g id="angdiam-scale">
    <line style="stroke:black;stroke-width:0.5" x1="49.75" x2="980.25" y1="120" y2="120"/>
    <g id="angdiam-majticks" stroke="black" stroke-width="0.5">
      <line x1="50.0" x2="50.0" y1="119.75" y2="128.0"/>
      <line x1="150.26488411565873" x2="150.26488411565873" y1="119.75" y2="128.0"/>
      <line x1="193.91280918291767" x2="193.91280918291767" y1="119.75" y2="128.0"/>
      <line x1="260.0908788457448" x2="260.0908788457448" y1="119.75" y2="128.0"/>
      <line x1="316.5244659913014" x2="316.5244659913014" y1="119.75" y2="128.0"/>
      <line x1="370.2049141041429" x2="370.2049141041429" y1="119.75" y2="128.0"/>
      <line x1="424.7506009086409" x2="424.7506009086409" y1="119.75" y2="128.0"/>
      <line x1="483.5512343219979" x2="483.5512343219979" y1="119.75" y2="128.0"/>
      <line x1="551.767720452141" x2="551.767720452141" y1="119.75" y2="128.0"/>
      <line x1="641.9953825584552" x2="641.9953825584552" y1="119.75" y2="128.0"/>
    </g>
    <g id="angdiam-medticks" stroke="black" stroke-width="0.5">
      <line x1="173.70214102692225" x2="173.70214102692225" y1="119.75" y2="126.0"/>
      <line x1="229.00966631178605" x2="229.00966631178605" y1="119.75" y2="126.0"/>
      <line x1="288.9429947060406" x2="288.9429947060406" y1="119.75" y2="126.0"/>
      <line x1="343.45614552921825" x2="343.45614552921825" y1="119.75" y2="126.0"/>
      <line x1="397.1724243926085" x2="397.1724243926085" y1="119.75" y2="126.0"/>
      <line x1="453.36902812334074" x2="453.36902812334074" y1="119.75" y2="126.0"/>
      <line x1="516.0014968826029" x2="516.0014968826029" y1="119.75" y2="126.0"/>
      <line x1="592.6056301099658" x2="592.6056301099658" y1="119.75" y2="126.0"/>
    </g>
    <g id="angdiam-minticks" stroke="black" stroke-width="0.5">
      <line x1="155.31162433639946" x2="155.31162433639946" y1="119.75" y2="124.0"/>
      <line x1="160.15504744969712" x2="160.15504744969712" y1="119.75" y2="124.0"/>
      <line x1="164.82117185465302" x2="164.82117185465302" y1="119.75" y2="124.0"/>
      <line x1="169.33107878709578" x2="169.33107878709578" y1="119.75" y2="124.0"/>
      <line x1="173.70214102692225" x2="173.70214102692225" y1="119.75" y2="124.0"/>
      <line x1="177.9488640915829" x2="177.9488640915829" y1="119.75" y2="124.0"/>
      <line x1="182.08350295173247" x2="182.08350295173247" y1="119.75" y2="124.0"/>
      <line x1="186.11654057775203" x2="186.11654057775203" y1="119.75" y2="124.0"/>
      <line x1="190.05702344120598" x2="190.05702344120598" y1="119.75" y2="124.0"/>
      <line x1="201.39704286181578" x2="201.39704286181578" y1="119.75" y2="124.0"/>
      <line x1="208.6153981713321" x2="208.6153981713321" y1="119.75" y2="124.0"/>
      <line x1="215.60460810934862" x2="215.60460810934862" y1="119.75" y2="124.0"/>
      <line x1="222.39448871667213" x2="222.39448871667213" y1="119.75" y2="124.0"/>
      <line x1="229.00966631178605" x2="229.00966631178605" y1="119.75" y2="124.0"/>
      <line x1="235.47078826588165" x2="235.47078826588165" y1="119.75" y2="124.0"/>
      <line x1="241.79537918055422" x2="241.79537918055422" y1="119.75" y2="124.0"/>
      <line x1="247.99848825507968" x2="247.99848825507968" y1="119.75" y2="124.0"/>
      <line x1="254.09318119811283" x2="254.09318119811283" y1="119.75" y2="124.0"/>
      <line x1="266.00170035044096" x2="266.00170035044096" y1="119.75" y2="124.0"/>
      <line x1="271.8346343251387" x2="271.8346343251387" y1="119.75" y2="124.0"/>
      <line x1="277.59774652605813" x2="277.59774652605813" y1="119.75" y2="124.0"/>
      <line x1="283.2983240993956" x2="283.2983240993956" y1="119.75" y2="124.0"/>
      <line x1="288.9429947060406" x2="288.9429947060406" y1="119.75" y2="124.0"/>
      <line x1="294.5378223591832" x2="294.5378223591832" y1="119.75" y2="124.0"/>
      <line x1="300.0883935759392" x2="300.0883935759392" y1="119.75" y2="124.0"/>
      <line x1="305.5998615843355" x2="305.5998615843355" y1="119.75" y2="124.0"/>
      <line x1="311.07705447925554" x2="311.07705447925554" y1="119.75" y2="124.0"/>
      <line x1="321.94635064600106" x2="321.94635064600106" y1="119.75" y2="124.0"/>
      <line x1="327.3467155866295" x2="327.3467155866295" y1="119.75" y2="124.0"/>
      <line x1="332.72938639829994" x2="332.72938639829994" y1="119.75" y2="124.0"/>
      <line x1="338.09802625738484" x2="338.09802625738484" y1="119.75" y2="124.0"/>
      <line x1="343.45614552921825" x2="343.45614552921825" y1="119.75" y2="124.0"/>
      <line x1="348.8071432024909" x2="348.8071432024909" y1="119.75" y2="124.0"/>
      <line x1="354.1543264404096" x2="354.1543264404096" y1="119.75" y2="124.0"/>
      <line x1="359.50091551858424" x2="359.50091551858424" y1="119.75" y2="124.0"/>
      <line x1="364.85007415014053" x2="364.85007415014053" y1="119.75" y2="124.0"/>
      <line x1="375.5685373014779" x2="375.5685373014779" y1="119.75" y2="124.0"/>
      <line x1="380.9440113704077" x2="380.9440113704077" y1="119.75" y2="124.0"/>
      <line x1="386.33441975985244" x2="386.33441975985244" y1="119.75" y2="124.0"/>
      <line x1="391.7428524849457" x2="391.7428524849457" y1="119.75" y2="124.0"/>
      <line x1="397.1724243926085" x2="397.1724243926085" y1="119.75" y2="124.0"/>
      <line x1="402.62631241281144" x2="402.62631241281144" y1="119.75" y2="124.0"/>
      <line x1="408.1077261326746" x2="408.1077261326746" y1="119.75" y2="124.0"/>
      <line x1="413.6199727580578" x2="413.6199727580578" y1="119.75" y2="124.0"/>
      <line x1="419.16643391297447" x2="419.16643391297447" y1="119.75" y2="124.0"/>
      <line x1="430.37608632905295" x2="430.37608632905295" y1="119.75" y2="124.0"/>
      <line x1="436.04665013677806" x2="436.04665013677806" y1="119.75" y2="124.0"/>
      <line x1="441.76622494455665" x2="441.76622494455665" y1="119.75" y2="124.0"/>
      <line x1="447.53890967135555" x2="447.53890967135555" y1="119.75" y2="124.0"/>
      <line x1="453.36902812334074" x2="453.36902812334074" y1="119.75" y2="124.0"/>
      <line x1="459.26115172318686" x2="459.26115172318686" y1="119.75" y2="124.0"/>
      <line x1="465.22010867919244" x2="465.22010867919244" y1="119.75" y2="124.0"/>
      <line x1="471.2510501959272" x2="471.2510501959272" y1="119.75" y2="124.0"/>
      <line x1="477.35946296716554" x2="477.35946296716554" y1="119.75" y2="124.0"/>
      <line x1="489.83269957686304" x2="489.83269957686304" y1="119.75" y2="124.0"/>
      <line x1="496.2107038795833" x2="496.2107038795833" y1="119.75" y2="124.0"/>
      <line x1="502.69265632914886" x2="502.69265632914886" y1="119.75" y2="124.0"/>
      <line x1="509.2866427757987" x2="509.2866427757987" y1="119.75" y2="124.0"/>
      <line x1="516.0014968826029" x2="516.0014968826029" y1="119.75" y2="124.0"/>
      <line x1="522.8469298829646" x2="522.8469298829646" y1="119.75" y2="124.0"/>
      <line x1="529.8336689515238" x2="529.8336689515238" y1="119.75" y2="124.0"/>
      <line x1="536.9735962597349" x2="536.9735962597349" y1="119.75" y2="124.0"/>
      <line x1="544.2799872205705" x2="544.2799872205705" y1="119.75" y2="124.0"/>
      <line x1="559.4536009901219" x2="559.4536009901219" y1="119.75" y2="124.0"/>
      <line x1="567.3567126984736" x2="567.3567126984736" y1="119.75" y2="124.0"/>
      <line x1="575.4989185234848" x2="575.4989185234848" y1="119.75" y2="124.0"/>
      <line x1="583.9054328628664" x2="583.9054328628664" y1="119.75" y2="124.0"/>
      <line x1="592.6056301099658" x2="592.6056301099658" y1="119.75" y2="124.0"/>
      <line x1="601.6340538600673" x2="601.6340538600673" y1="119.75" y2="124.0"/>
      <line x1="611.031802897014" x2="611.031802897014" y1="119.75" y2="124.0"/>
      <line x1="620.8484070451993" x2="620.8484070451993" y1="119.75" y2="124.0"/>
      <line x1="631.1444547639668" x2="631.1444547639668" y1="119.75" y2="124.0"/>
    </g>
    <g id="angdiam-labels" style="font-size:10;font-family:Helvetica Neue">
      <text alignment-baseline="hanging" text-anchor="middle" x="150.26488411565873" y="131.0">0.1</text>
      <text alignment-baseline="hanging" text-anchor="middle" x="193.91280918291767" y="131.0">0.2</text>
      <text alignment-baseline="hanging" text-anchor="middle" x="260.0908788457448" y="131.0">0.4</text>
      <text alignment-baseline="hanging" text-anchor="middle" x="316.5244659913014" y="131.0">0.6</text>
      <text alignment-baseline="hanging" text-anchor="middle" x="370.2049141041429" y="131.0">0.8</text>
      <text alignment-baseline="hanging" text-anchor="middle" x="424.7506009086409" y="131.0">1.0</text>
      <text alignment-baseline="hanging" text-anchor="middle" x="483.5512343219979" y="131.0">1.2</text>
      <text alignment-baseline="hanging" text-anchor="middle" x="551.767720452141" y="131.0">1.4</text>
      <text alignment-baseline="hanging" text-anchor="middle" x="641.9953825584552" y="131.0">1.6</text>
      <text alignment-baseline="hanging" text-anchor="middle" x="50.0" y="131.0">0</text>
    </g>
    <g id="angdiam-title" style="font-size:12;font-family:CMU Serif" text-anchor="start">
      <text alignment-baseline="auto" x="50" y="115.0">Angular diameter distance [Gpc]</text>
    </g>
  </g>
</svg>
