<?xml version="1.0" encoding="utf-8" ?>
<svg baseProfile="full" height="100%" version="1.1" width="100%" xmlns="http://www.w3.org/2000/svg" xmlns:ev="http://www.w3.org/2001/xml-events" xmlns:xlink="http://www.w3.org/1999/xlink">
  <defs/>
  <rect fill="none" height="200" rx="10" ry="10" stroke="black" width="1000" x="10" y="10"/>
  <g id="redshift-scale">
    <line style="stroke:black;stroke-width:0.5" x1="50" x2="980" y1="40" y2="40"/>
    <g id="redshift-majticks" stroke="black" stroke-width="0.5">
      <line x1="50.0" x2="50.0" y1="39.75" y2="48"/>
      <line x1="96.5" x2="96.5" y1="39.75" y2="48"/>
      <line x1="143.0" x2="143.0" y1="39.75" y2="48"/>
      <line x1="189.50000000000003" x2="189.50000000000003" y1="39.75" y2="48"/>
      <line x1="236.0" x2="236.0" y1="39.75" y2="48"/>
      <line x1="282.5" x2="282.5" y1="39.75" y2="48"/>
      <line x1="329.00000000000006" x2="329.00000000000006" y1="39.75" y2="48"/>
      <line x1="375.50000000000006" x2="375.50000000000006" y1="39.75" y2="48"/>
      <line x1="422.0" x2="422.0" y1="39.75" y2="48"/>
      <line x1="468.5" x2="468.5" y1="39.75" y2="48"/>
      <line x1="515.0" x2="515.0" y1="39.75" y2="48"/>
      <line x1="561.5" x2="561.5" y1="39.75" y2="48"/>
      <line x1="608.0000000000001" x2="608.0000000000001" y1="39.75" y2="48"/>
      <line x1="654.5" x2="654.5" y1="39.75" y2="48"/>
      <line x1="701.0000000000001" x2="701.0000000000001" y1="39.75" y2="48"/>
      <line x1="747.5" x2="747.5" y1="39.75" y2="48"/>
      <line x1="794.0" x2="794.0" y1="39.75" y2="48"/>
      <line x1="840.5000000000001" x2="840.5000000000001" y1="39.75" y2="48"/>
      <line x1="887.0" x2="887.0" y1="39.75" y2="48"/>
      <line x1="933.5000000000001" x2="933.5000000000001" y1="39.75" y2="48"/>
      <line x1="980.0" x2="980.0" y1="39.75" y2="48"/>
    </g>
    <g id="redshift-medticks" stroke="black" stroke-width="0.5">
      <line x1="50.0" x2="50.0" y1="39.75" y2="46"/>
      <line x1="73.25" x2="73.25" y1="39.75" y2="46"/>
      <line x1="96.5" x2="96.5" y1="39.75" y2="46"/>
      <line x1="119.75000000000001" x2="119.75000000000001" y1="39.75" y2="46"/>
      <line x1="143.0" x2="143.0" y1="39.75" y2="46"/>
      <line x1="166.25" x2="166.25" y1="39.75" y2="46"/>
      <line x1="189.50000000000003" x2="189.50000000000003" y1="39.75" y2="46"/>
      <line x1="212.75000000000003" x2="212.75000000000003" y1="39.75" y2="46"/>
      <line x1="236.0" x2="236.0" y1="39.75" y2="46"/>
      <line x1="259.25" x2="259.25" y1="39.75" y2="46"/>
      <line x1="282.5" x2="282.5" y1="39.75" y2="46"/>
      <line x1="305.75" x2="305.75" y1="39.75" y2="46"/>
      <line x1="329.00000000000006" x2="329.00000000000006" y1="39.75" y2="46"/>
      <line x1="352.25" x2="352.25" y1="39.75" y2="46"/>
      <line x1="375.50000000000006" x2="375.50000000000006" y1="39.75" y2="46"/>
      <line x1="398.75" x2="398.75" y1="39.75" y2="46"/>
      <line x1="422.0" x2="422.0" y1="39.75" y2="46"/>
      <line x1="445.25000000000006" x2="445.25000000000006" y1="39.75" y2="46"/>
      <line x1="468.5" x2="468.5" y1="39.75" y2="46"/>
      <line x1="491.75000000000006" x2="491.75000000000006" y1="39.75" y2="46"/>
      <line x1="515.0" x2="515.0" y1="39.75" y2="46"/>
      <line x1="538.25" x2="538.25" y1="39.75" y2="46"/>
      <line x1="561.5" x2="561.5" y1="39.75" y2="46"/>
      <line x1="584.7500000000001" x2="584.7500000000001" y1="39.75" y2="46"/>
      <line x1="608.0000000000001" x2="608.0000000000001" y1="39.75" y2="46"/>
      <line x1="631.25" x2="631.25" y1="39.75" y2="46"/>
      <line x1="654.5" x2="654.5" y1="39.75" y2="46"/>
      <line x1="677.75" x2="677.75" y1="39.75" y2="46"/>
      <line x1="701.0000000000001" x2="701.0000000000001" y1="39.75" y2="46"/>
      <line x1="724.2500000000001" x2="724.2500000000001" y1="39.75" y2="46"/>
      <line x1="747.5" x2="747.5" y1="39.75" y2="46"/>
      <line x1="770.75" x2="770.75" y1="39.75" y2="46"/>
      <line x1="794.0" x2="794.0" y1="39.75" y2="46"/>
      <line x1="817.2500000000001" x2="817.2500000000001" y1="39.75" y2="46"/>
      <line x1="840.5000000000001" x2="840.5000000000001" y1="39.75" y2="46"/>
      <line x1="863.75" x2="863.75" y1="39.75" y2="46"/>
      <line x1="887.0" x2="887.0" y1="39.75" y2="46"/>
      <line x1="910.25" x2="910.25" y1="39.75" y2="46"/>
      <line x1="933.5000000000001" x2="933.5000000000001" y1="39.75" y2="46"/>
      <line x1="956.7500000000001" x2="956.7500000000001" y1="39.75" y2="46"/>
      <line x1="980.0" x2="980.0" y1="39.75" y2="46"/>
    </g>
    <g id="redshift-minticks" stroke="black" stroke-width="0.5">
      <line x1="50.0" x2="50.0" y1="39.75" y2="44"/>
      <line x1="54.65" x2="54.65" y1="39.75" y2="44"/>
      <line x1="59.3" x2="59.3" y1="39.75" y2="44"/>
      <line x1="63.95" x2="63.95" y1="39.75" y2="44"/>
      <line x1="68.6" x2="68.6" y1="39.75" y2="44"/>
      <line x1="73.25" x2="73.25" y1="39.75" y2="44"/>
      <line x1="77.9" x2="77.9" y1="39.75" y2="44"/>
      <line x1="82.55000000000001" x2="82.55000000000001" y1="39.75" y2="44"/>
      <line x1="87.2" x2="87.2" y1="39.75" y2="44"/>
      <line x1="91.85" x2="91.85" y1="39.75" y2="44"/>
      <line x1="96.5" x2="96.5" y1="39.75" y2="44"/>
      <line x1="101.15" x2="101.15" y1="39.75" y2="44"/>
      <line x1="105.8" x2="105.8" y1="39.75" y2="44"/>
      <line x1="110.45" x2="110.45" y1="39.75" y2="44"/>
      <line x1="115.10000000000001" x2="115.10000000000001" y1="39.75" y2="44"/>
      <line x1="119.75" x2="119.75" y1="39.75" y2="44"/>
      <line x1="124.4" x2="124.4" y1="39.75" y2="44"/>
      <line x1="129.05" x2="129.05" y1="39.75" y2="44"/>
      <line x1="133.7" x2="133.7" y1="39.75" y2="44"/>
      <line x1="138.35" x2="138.35" y1="39.75" y2="44"/>
      <line x1="143.0" x2="143.0" y1="39.75" y2="44"/>
      <line x1="147.64999999999998" x2="147.64999999999998" y1="39.75" y2="44"/>
      <line x1="152.3" x2="152.3" y1="39.75" y2="44"/>
      <line x1="156.95" x2="156.95" y1="39.75" y2="44"/>
      <line x1="161.6" x2="161.6" y1="39.75" y2="44"/>
      <line x1="166.25" x2="166.25" y1="39.75" y2="44"/>
      <line x1="170.9" x2="170.9" y1="39.75" y2="44"/>
      <line x1="175.55" x2="175.55" y1="39.75" y2="44"/>
      <line x1="180.20000000000002" x2="180.20000000000002" y1="39.75" y2="44"/>
      <line x1="184.85" x2="184.85" y1="39.75" y2="44"/>
      <line x1="189.5" x2="189.5" y1="39.75" y2="44"/>
      <line x1="194.15" x2="194.15" y1="39.75" y2="44"/>
      <line x1="198.8" x2="198.8" y1="39.75" y2="44"/>
      <line x1="203.45000000000002" x2="203.45000000000002" y1="39.75" y2="44"/>
      <line x1="208.10000000000002" x2="208.10000000000002" y1="39.75" y2="44"/>
      <line x1="212.75000000000003" x2="212.75000000000003" y1="39.75" y2="44"/>
      <line x1="217.4" x2="217.4" y1="39.75" y2="44"/>
      <line x1="222.05" x2="222.05" y1="39.75" y2="44"/>
      <line x1="226.7" x2="226.7" y1="39.75" y2="44"/>
      <line x1="231.35" x2="231.35" y1="39.75" y2="44"/>
      <line x1="236.0" x2="236.0" y1="39.75" y2="44"/>
      <line x1="240.65" x2="240.65" y1="39.75" y2="44"/>
      <line x1="245.29999999999998" x2="245.29999999999998" y1="39.75" y2="44"/>
      <line x1="249.95" x2="249.95" y1="39.75" y2="44"/>
      <line x1="254.6" x2="254.6" y1="39.75" y2="44"/>
      <line x1="259.25" x2="259.25" y1="39.75" y2="44"/>
      <line x1="263.9" x2="263.9" y1="39.75" y2="44"/>
      <line x1="268.55" x2="268.55" y1="39.75" y2="44"/>
      <line x1="273.2" x2="273.2" y1="39.75" y2="44"/>
      <line x1="277.85" x2="277.85" y1="39.75" y2="44"/>
      <line x1="282.5" x2="282.5" y1="39.75" y2="44"/>
      <line x1="287.15" x2="287.15" y1="39.75" y2="44"/>
      <line x1="291.8" x2="291.8" y1="39.75" y2="44"/>
      <line x1="296.45000000000005" x2="296.45000000000005" y1="39.75" y2="44"/>
      <line x1="301.1" x2="301.1" y1="39.75" y2="44"/>
      <line x1="305.75" x2="305.75" y1="39.75" y2="44"/>
      <line x1="310.40000000000003" x2="310.40000000000003" y1="39.75" y2="44"/>
      <line x1="315.05" x2="315.05" y1="39.75" y2="44"/>
      <line x1="319.7" x2="319.7" y1="39.75" y2="44"/>
      <line x1="324.34999999999997" x2="324.34999999999997" y1="39.75" y2="44"/>
      <line x1="329.0" x2="329.0" y1="39.75" y2="44"/>
      <line x1="333.65" x2="333.65" y1="39.75" y2="44"/>
      <line x1="338.3" x2="338.3" y1="39.75" y2="44"/>
      <line x1="342.95" x2="342.95" y1="39.75" y2="44"/>
      <line x1="347.6" x2="347.6" y1="39.75" y2="44"/>
      <line x1="352.25" x2="352.25" y1="39.75" y2="44"/>
      <line x1="356.90000000000003" x2="356.90000000000003" y1="39.75" y2="44"/>
      <line x1="361.55" x2="361.55" y1="39.75" y2="44"/>
      <line x1="366.20000000000005" x2="366.20000000000005" y1="39.75" y2="44"/>
      <line x1="370.85" x2="370.85" y1="39.75" y2="44"/>
      <line x1="375.50000000000006" x2="375.50000000000006" y1="39.75" y2="44"/>
      <line x1="380.15" x2="380.15" y1="39.75" y2="44"/>
      <line x1="384.8" x2="384.8" y1="39.75" y2="44"/>
      <line x1="389.45" x2="389.45" y1="39.75" y2="44"/>
      <line x1="394.1" x2="394.1" y1="39.75" y2="44"/>
      <line x1="398.75" x2="398.75" y1="39.75" y2="44"/>
      <line x1="403.4" x2="403.4" y1="39.75" y2="44"/>
      <line x1="408.05" x2="408.05" y1="39.75" y2="44"/>
      <line x1="412.7" x2="412.7" y1="39.75" y2="44"/>
      <line x1="417.35" x2="417.35" y1="39.75" y2="44"/>
      <line x1="422.0" x2="422.0" y1="39.75" y2="44"/>
      <line x1="426.65000000000003" x2="426.65000000000003" y1="39.75" y2="44"/>
      <line x1="431.3" x2="431.3" y1="39.75" y2="44"/>
      <line x1="435.95000000000005" x2="435.95000000000005" y1="39.75" y2="44"/>
      <line x1="440.59999999999997" x2="440.59999999999997" y1="39.75" y2="44"/>
      <line x1="445.25" x2="445.25" y1="39.75" y2="44"/>
      <line x1="449.9" x2="449.9" y1="39.75" y2="44"/>
      <line x1="454.55" x2="454.55" y1="39.75" y2="44"/>
      <line x1="459.2" x2="459.2" y1="39.75" y2="44"/>
      <line x1="463.85" x2="463.85" y1="39.75" y2="44"/>
      <line x1="468.5" x2="468.5" y1="39.75" y2="44"/>
      <line x1="473.15000000000003" x2="473.15000000000003" y1="39.75" y2="44"/>
      <line x1="477.8" x2="477.8" y1="39.75" y2="44"/>
      <line x1="482.45000000000005" x2="482.45000000000005" y1="39.75" y2="44"/>
      <line x1="487.1" x2="487.1" y1="39.75" y2="44"/>
      <line x1="491.75000000000006" x2="491.75000000000006" y1="39.75" y2="44"/>
      <line x1="496.4" x2="496.4" y1="39.75" y2="44"/>
      <line x1="501.05" x2="501.05" y1="39.75" y2="44"/>
      <line x1="505.7" x2="505.7" y1="39.75" y2="44"/>
      <line x1="510.35" x2="510.35" y1="39.75" y2="44"/>
      <line x1="515.0" x2="515.0" y1="39.75" y2="44"/>
      <line x1="519.65" x2="519.65" y1="39.75" y2="44"/>
      <line x1="524.3" x2="524.3" y1="39.75" y2="44"/>
      <line x1="528.95" x2="528.95" y1="39.75" y2="44"/>
      <line x1="533.6" x2="533.6" y1="39.75" y2="44"/>
      <line x1="538.25" x2="538.25" y1="39.75" y2="44"/>
      <line x1="542.9000000000001" x2="542.9000000000001" y1="39.75" y2="44"/>
      <line x1="547.55" x2="547.55" y1="39.75" y2="44"/>
      <line x1="552.2" x2="552.2" y1="39.75" y2="44"/>
      <line x1="556.85" x2="556.85" y1="39.75" y2="44"/>
      <line x1="561.5" x2="561.5" y1="39.75" y2="44"/>
      <line x1="566.1500000000001" x2="566.1500000000001" y1="39.75" y2="44"/>
      <line x1="570.8000000000001" x2="570.8000000000001" y1="39.75" y2="44"/>
      <line x1="575.45" x2="575.45" y1="39.75" y2="44"/>
      <line x1="580.1" x2="580.1" y1="39.75" y2="44"/>
      <line x1="584.7500000000001" x2="584.7500000000001" y1="39.75" y2="44"/>
      <line x1="589.4" x2="589.4" y1="39.75" y2="44"/>
      <line x1="594.05" x2="594.05" y1="39.75" y2="44"/>
      <line x1="598.6999999999999" x2="598.6999999999999" y1="39.75" y2="44"/>
      <line x1="603.35" x2="603.35" y1="39.75" y2="44"/>
      <line x1="608.0" x2="608.0" y1="39.75" y2="44"/>
      <line x1="612.65" x2="612.65" y1="39.75" y2="44"/>
      <line x1="617.3" x2="617.3" y1="39.75" y2="44"/>
      <line x1="621.95" x2="621.95" y1="39.75" y2="44"/>
      <line x1="626.6" x2="626.6" y1="39.75" y2="44"/>
      <line x1="631.25" x2="631.25" y1="39.75" y2="44"/>
      <line x1="635.9" x2="635.9" y1="39.75" y2="44"/>
      <line x1="640.55" x2="640.55" y1="39.75" y2="44"/>
      <line x1="645.2" x2="645.2" y1="39.75" y2="44"/>
      <line x1="649.85" x2="649.85" y1="39.75" y2="44"/>
      <line x1="654.5" x2="654.5" y1="39.75" y2="44"/>
      <line x1="659.15" x2="659.15" y1="39.75" y2="44"/>
      <line x1="663.8000000000001" x2="663.8000000000001" y1="39.75" y2="44"/>
      <line x1="668.45" x2="668.45" y1="39.75" y2="44"/>
      <line x1="673.1" x2="673.1" y1="39.75" y2="44"/>
      <line x1="677.75" x2="677.75" y1="39.75" y2="44"/>
      <line x1="682.4000000000001" x2="682.4000000000001" y1="39.75" y2="44"/>
      <line x1="687.0500000000001" x2="687.0500000000001" y1="39.75" y2="44"/>
      <line x1="691.7" x2="691.7" y1="39.75" y2="44"/>
      <line x1="696.35" x2="696.35" y1="39.75" y2="44"/>
      <line x1="701.0000000000001" x2="701.0000000000001" y1="39.75" y2="44"/>
      <line x1="705.65" x2="705.65" y1="39.75" y2="44"/>
      <line x1="710.3" x2="710.3" y1="39.75" y2="44"/>
      <line x1="714.9499999999999" x2="714.9499999999999" y1="39.75" y2="44"/>
      <line x1="719.6" x2="719.6" y1="39.75" y2="44"/>
      <line x1="724.25" x2="724.25" y1="39.75" y2="44"/>
      <line x1="728.9" x2="728.9" y1="39.75" y2="44"/>
      <line x1="733.55" x2="733.55" y1="39.75" y2="44"/>
      <line x1="738.2" x2="738.2" y1="39.75" y2="44"/>
      <line x1="742.85" x2="742.85" y1="39.75" y2="44"/>
      <line x1="747.5" x2="747.5" y1="39.75" y2="44"/>
      <line x1="752.15" x2="752.15" y1="39.75" y2="44"/>
      <line x1="756.8" x2="756.8" y1="39.75" y2="44"/>
      <line x1="761.45" x2="761.45" y1="39.75" y2="44"/>
      <line x1="766.1" x2="766.1" y1="39.75" y2="44"/>
      <line x1="770.75" x2="770.75" y1="39.75" y2="44"/>
      <line x1="775.4" x2="775.4" y1="39.75" y2="44"/>
      <line x1="780.0500000000001" x2="780.0500000000001" y1="39.75" y2="44"/>
      <line x1="784.7" x2="784.7" y1="39.75" y2="44"/>
      <line x1="789.35" x2="789.35" y1="39.75" y2="44"/>
      <line x1="794.0" x2="794.0" y1="39.75" y2="44"/>
      <line x1="798.6500000000001" x2="798.6500000000001" y1="39.75" y2="44"/>
      <line x1="803.3000000000001" x2="803.3000000000001" y1="39.75" y2="44"/>
      <line x1="807.95" x2="807.95" y1="39.75" y2="44"/>
      <line x1="812.6" x2="812.6" y1="39.75" y2="44"/>
      <line x1="817.2500000000001" x2="817.2500000000001" y1="39.75" y2="44"/>
      <line x1="821.9000000000001" x2="821.9000000000001" y1="39.75" y2="44"/>
      <line x1="826.55" x2="826.55" y1="39.75" y2="44"/>
      <line x1="831.1999999999999" x2="831.1999999999999" y1="39.75" y2="44"/>
      <line x1="835.85" x2="835.85" y1="39.75" y2="44"/>
      <line x1="840.5" x2="840.5" y1="39.75" y2="44"/>
      <line x1="845.15" x2="845.15" y1="39.75" y2="44"/>
      <line x1="849.8" x2="849.8" y1="39.75" y2="44"/>
      <line x1="854.45" x2="854.45" y1="39.75" y2="44"/>
      <line x1="859.1" x2="859.1" y1="39.75" y2="44"/>
      <line x1="863.75" x2="863.75" y1="39.75" y2="44"/>
      <line x1="868.4" x2="868.4" y1="39.75" y2="44"/>
      <line x1="873.05" x2="873.05" y1="39.75" y2="44"/>
      <line x1="877.7" x2="877.7" y1="39.75" y2="44"/>
      <line x1="882.35" x2="882.35" y1="39.75" y2="44"/>
      <line x1="887.0" x2="887.0" y1="39.75" y2="44"/>
      <line x1="891.65" x2="891.65" y1="39.75" y2="44"/>
      <line x1="896.3000000000001" x2="896.3000000000001" y1="39.75" y2="44"/>
      <line x1="900.95" x2="900.95" y1="39.75" y2="44"/>
      <line x1="905.6" x2="905.6" y1="39.75" y2="44"/>
      <line x1="910.25" x2="910.25" y1="39.75" y2="44"/>
      <line x1="914.9000000000001" x2="914.9000000000001" y1="39.75" y2="44"/>
      <line x1="919.5500000000001" x2="919.5500000000001" y1="39.75" y2="44"/>
      <line x1="924.2" x2="924.2" y1="39.75" y2="44"/>
      <line x1="928.85" x2="928.85" y1="39.75" y2="44"/>
      <line x1="933.5000000000001" x2="933.5000000000001" y1="39.75" y2="44"/>
      <line x1="938.1500000000001" x2="938.1500000000001" y1="39.75" y2="44"/>
      <line x1="942.8" x2="942.8" y1="39.75" y2="44"/>
      <line x1="947.4499999999999" x2="947.4499999999999" y1="39.75" y2="44"/>
      <line x1="952.1" x2="952.1" y1="39.75" y2="44"/>
      <line x1="956.75" x2="956.75" y1="39.75" y2="44"/>
      <line x1="961.4" x2="961.4" y1="39.75" y2="44"/>
      <line x1="966.05" x2="966.05" y1="39.75" y2="44"/>
      <line x1="970.7" x2="970.7" y1="39.75" y2="44"/>
      <line x1="975.35" x2="975.35" y1="39.75" y2="44"/>
      <line x1="980.0" x2="980.0" y1="39.75" y2="44"/>
    </g>
    <g id="redshift-labels" style="font-size:10;font-family:Helvetica Neue" text-anchor="middle">
      <text x="50.0" y="58">0.0</text>
      <text x="96.5" y="58">0.1</text>
      <text x="143.0" y="58">0.2</text>
      <text x="189.50000000000003" y="58">0.3</text>
      <text x="236.0" y="58">0.4</text>
      <text x="282.5" y="58">0.5</text>
      <text x="329.00000000000006" y="58">0.6</text>
      <text x="375.50000000000006" y="58">0.7</text>
      <text x="422.0" y="58">0.8</text>
      <text x="468.5" y="58">0.9</text>
      <text x="515.0" y="58">1.0</text>
      <text x="561.5" y="58">1.1</text>
      <text x="608.0000000000001" y="58">1.2</text>
      <text x="654.5" y="58">1.3</text>
      <text x="701.0000000000001" y="58">1.4</text>
      <text x="747.5" y="58">1.5</text>
      <text x="794.0" y="58">1.6</text>
      <text x="840.5000000000001" y="58">1.7</text>
      <text x="887.0" y="58">1.8</text>
      <text x="933.5000000000001" y="58">1.9</text>
      <text x="980.0" y="58">2.0</text>
    </g>
    <g id="redshift-title" style="font-size:12;font-family:CMU Serif" text-anchor="start">
      <text x="50" y="35">Redshift</text>
    </g>
  </g>
  <g id="lbt-scale">
    <line style="stroke:black;stroke-width:0.5" x1="50" x2="980" y1="80" y2="80"/>
    <g id="lbt-majticks" stroke="black" stroke-width="0.5">
      <line x1="83.95217716102314" x2="83.95217716102314" y1="79.75" y2="88"/>
      <line x1="121.8636664217931" x2="121.8636664217931" y1="79.75" y2="88"/>
      <line x1="164.6470822260006" x2="164.6470822260006" y1="79.75" y2="88"/>
      <line x1="213.55850853704953" x2="213.55850853704953" y1="79.75" y2="88"/>
      <line x1="270.3781900422308" x2="270.3781900422308" y1="79.75" y2="88"/>
      <line x1="337.72017363237836" x2="337.72017363237836" y1="79.75" y2="88"/>
      <line x1="419.5946305249175" x2="419.5946305249175" y1="79.75" y2="88"/>
      <line x1="522.5064063075022" x2="522.5064063075022" y1="79.75" y2="88"/>
      <line x1="657.8138865137336" x2="657.8138865137336" y1="79.75" y2="88"/>
      <line x1="847.4842934742155" x2="847.4842934742155" y1="79.75" y2="88"/>
      <line x1="50.0" x2="50.0" y1="79.75" y2="88"/>
    </g>
    <g id="lbt-medticks" stroke="black" stroke-width="0.5">
      <line x1="66.52814727629308" x2="66.52814727629308" y1="79.75" y2="86"/>
      <line x1="102.36247405517412" x2="102.36247405517412" y1="79.75" y2="86"/>
      <line x1="142.57760224368604" x2="142.57760224368604" y1="79.75" y2="86"/>
      <line x1="188.24060863878952" x2="188.24060863878952" y1="79.75" y2="86"/>
      <line x1="240.84089193129682" x2="240.84089193129682" y1="79.75" y2="86"/>
      <line x1="302.52518461411194" x2="302.52518461411194" y1="79.75" y2="86"/>
      <line x1="376.51144023101006" x2="376.51144023101006" y1="79.75" y2="86"/>
      <line x1="467.86678754090707" x2="467.86678754090707" y1="79.75" y2="86"/>
      <line x1="585.0956711034476" x2="585.0956711034476" y1="79.75" y2="86"/>
      <line x1="743.7559741804247" x2="743.7559741804247" y1="79.75" y2="86"/>
      <line x1="976.0438883566461" x2="976.0438883566461" y1="79.75" y2="86"/>
    </g>
    <g id="lbt-minticks" stroke="black" stroke-width="0.5">
      <line x1="53.23788058531309" x2="53.23788058531309" y1="79.75" y2="84"/>
      <line x1="56.50901740572597" x2="56.50901740572597" y1="79.75" y2="84"/>
      <line x1="59.81402058102714" x2="59.81402058102714" y1="79.75" y2="84"/>
      <line x1="63.15351660778115" x2="63.15351660778115" y1="79.75" y2="84"/>
      <line x1="66.52814727629308" x2="66.52814727629308" y1="79.75" y2="84"/>
      <line x1="69.93857468654403" x2="69.93857468654403" y1="79.75" y2="84"/>
      <line x1="73.38547985437789" x2="73.38547985437789" y1="79.75" y2="84"/>
      <line x1="76.8695647675898" x2="76.8695647675898" y1="79.75" y2="84"/>
      <line x1="80.39155193485787" x2="80.39155193485787" y1="79.75" y2="84"/>
      <line x1="83.95217716102314" x2="83.95217716102314" y1="79.75" y2="84"/>
      <line x1="87.5522088979911" x2="87.5522088979911" y1="79.75" y2="84"/>
      <line x1="91.19243292885946" x2="91.19243292885946" y1="79.75" y2="84"/>
      <line x1="94.87365758623363" x2="94.87365758623363" y1="79.75" y2="84"/>
      <line x1="98.59671706921173" x2="98.59671706921173" y1="79.75" y2="84"/>
      <line x1="102.36247405517412" x2="102.36247405517412" y1="79.75" y2="84"/>
      <line x1="106.17180993556804" x2="106.17180993556804" y1="79.75" y2="84"/>
      <line x1="110.02564141208697" x2="110.02564141208697" y1="79.75" y2="84"/>
      <line x1="113.92490729015785" x2="113.92490729015785" y1="79.75" y2="84"/>
      <line x1="117.8705812191184" x2="117.8705812191184" y1="79.75" y2="84"/>
      <line x1="121.8636664217931" x2="121.8636664217931" y1="79.75" y2="84"/>
      <line x1="125.90519203828572" x2="125.90519203828572" y1="79.75" y2="84"/>
      <line x1="129.99622917825323" x2="129.99622917825323" y1="79.75" y2="84"/>
      <line x1="134.13787935031274" x2="134.13787935031274" y1="79.75" y2="84"/>
      <line x1="138.3312781113026" x2="138.3312781113026" y1="79.75" y2="84"/>
      <line x1="142.57760224368607" x2="142.57760224368607" y1="79.75" y2="84"/>
      <line x1="146.87806751623216" x2="146.87806751623216" y1="79.75" y2="84"/>
      <line x1="151.23392757733745" x2="151.23392757733745" y1="79.75" y2="84"/>
      <line x1="155.64647991825524" x2="155.64647991825524" y1="79.75" y2="84"/>
      <line x1="160.11706905812412" x2="160.11706905812412" y1="79.75" y2="84"/>
      <line x1="164.64708222600063" x2="164.64708222600063" y1="79.75" y2="84"/>
      <line x1="169.2379582018397" x2="169.2379582018397" y1="79.75" y2="84"/>
      <line x1="173.89117818715124" x2="173.89117818715124" y1="79.75" y2="84"/>
      <line x1="178.6082869895394" x2="178.6082869895394" y1="79.75" y2="84"/>
      <line x1="183.39088010611047" x2="183.39088010611047" y1="79.75" y2="84"/>
      <line x1="188.24060863878955" x2="188.24060863878955" y1="79.75" y2="84"/>
      <line x1="193.1591855121319" x2="193.1591855121319" y1="79.75" y2="84"/>
      <line x1="198.14838951779552" x2="198.14838951779552" y1="79.75" y2="84"/>
      <line x1="203.21005573227515" x2="203.21005573227515" y1="79.75" y2="84"/>
      <line x1="208.34610297427238" x2="208.34610297427238" y1="79.75" y2="84"/>
      <line x1="213.55850853704953" x2="213.55850853704953" y1="79.75" y2="84"/>
      <line x1="218.8493364539572" x2="218.8493364539572" y1="79.75" y2="84"/>
      <line x1="224.2207199227209" x2="224.2207199227209" y1="79.75" y2="84"/>
      <line x1="229.6748858398898" x2="229.6748858398898" y1="79.75" y2="84"/>
      <line x1="235.21414422172532" x2="235.21414422172532" y1="79.75" y2="84"/>
      <line x1="240.84089193129682" x2="240.84089193129682" y1="79.75" y2="84"/>
      <line x1="246.55763988003065" x2="246.55763988003065" y1="79.75" y2="84"/>
      <line x1="252.36697438478936" x2="252.36697438478936" y1="79.75" y2="84"/>
      <line x1="258.27161095219014" x2="258.27161095219014" y1="79.75" y2="84"/>
      <line x1="264.27437242259145" x2="264.27437242259145" y1="79.75" y2="84"/>
      <line x1="270.3781900422308" x2="270.3781900422308" y1="79.75" y2="84"/>
      <line x1="276.58613335250016" x2="276.58613335250016" y1="79.75" y2="84"/>
      <line x1="282.90139262705395" x2="282.90139262705395" y1="79.75" y2="84"/>
      <line x1="289.3273120747938" x2="289.3273120747938" y1="79.75" y2="84"/>
      <line x1="295.8673623466673" x2="295.8673623466673" y1="79.75" y2="84"/>
      <line x1="302.52518461411194" x2="302.52518461411194" y1="79.75" y2="84"/>
      <line x1="309.30458136824285" x2="309.30458136824285" y1="79.75" y2="84"/>
      <line x1="316.20952090564396" x2="316.20952090564396" y1="79.75" y2="84"/>
      <line x1="323.2441661106365" x2="323.2441661106365" y1="79.75" y2="84"/>
      <line x1="330.4128661693439" x2="330.4128661693439" y1="79.75" y2="84"/>
      <line x1="337.72017363237836" x2="337.72017363237836" y1="79.75" y2="84"/>
      <line x1="345.1708690335765" x2="345.1708690335765" y1="79.75" y2="84"/>
      <line x1="352.7699627840662" x2="352.7699627840662" y1="79.75" y2="84"/>
      <line x1="360.52269388819144" x2="360.52269388819144" y1="79.75" y2="84"/>
      <line x1="368.43458822074473" x2="368.43458822074473" y1="79.75" y2="84"/>
      <line x1="376.51144023101006" x2="376.51144023101006" y1="79.75" y2="84"/>
      <line x1="384.75933315122865" x2="384.75933315122865" y1="79.75" y2="84"/>
      <line x1="393.18467195060697" x2="393.18467195060697" y1="79.75" y2="84"/>
      <line x1="401.7942063159014" x2="401.7942063159014" y1="79.75" y2="84"/>
      <line x1="410.5950266212009" x2="410.5950266212009" y1="79.75" y2="84"/>
      <line x1="419.5946305249175" x2="419.5946305249175" y1="79.75" y2="84"/>
      <line x1="428.8009095953808" x2="428.8009095953808" y1="79.75" y2="84"/>
      <line x1="438.22219653506426" x2="438.22219653506426" y1="79.75" y2="84"/>
      <line x1="447.8673058723285" x2="447.8673058723285" y1="79.75" y2="84"/>
      <line x1="457.74555497176453" x2="457.74555497176453" y1="79.75" y2="84"/>
      <line x1="467.86678754090707" x2="467.86678754090707" y1="79.75" y2="84"/>
      <line x1="478.2414666774509" x2="478.2414666774509" y1="79.75" y2="84"/>
      <line x1="488.88063974019116" x2="488.88063974019116" y1="79.75" y2="84"/>
      <line x1="499.7960783381992" x2="499.7960783381992" y1="79.75" y2="84"/>
      <line x1="511.0002322455355" x2="511.0002322455355" y1="79.75" y2="84"/>
      <line x1="522.5064063075022" x2="522.5064063075022" y1="79.75" y2="84"/>
      <line x1="534.3286944011613" x2="534.3286944011613" y1="79.75" y2="84"/>
      <line x1="546.4821677570333" x2="546.4821677570333" y1="79.75" y2="84"/>
      <line x1="558.9828579768975" x2="558.9828579768975" y1="79.75" y2="84"/>
      <line x1="571.8479189338129" x2="571.8479189338129" y1="79.75" y2="84"/>
      <line x1="585.0956711034476" x2="585.0956711034476" y1="79.75" y2="84"/>
      <line x1="598.7457534309052" x2="598.7457534309052" y1="79.75" y2="84"/>
      <line x1="612.8191784426018" x2="612.8191784426018" y1="79.75" y2="84"/>
      <line x1="627.3385266194422" x2="627.3385266194422" y1="79.75" y2="84"/>
      <line x1="642.3280571670573" x2="642.3280571670573" y1="79.75" y2="84"/>
      <line x1="657.8138865137336" x2="657.8138865137336" y1="79.75" y2="84"/>
      <line x1="673.8241421515597" x2="673.8241421515597" y1="79.75" y2="84"/>
      <line x1="690.3892288487685" x2="690.3892288487685" y1="79.75" y2="84"/>
      <line x1="707.5419989148032" x2="707.5419989148032" y1="79.75" y2="84"/>
      <line x1="725.3180390977941" x2="725.3180390977941" y1="79.75" y2="84"/>
      <line x1="743.7559741804247" x2="743.7559741804247" y1="79.75" y2="84"/>
      <line x1="762.8977900468736" x2="762.8977900468736" y1="79.75" y2="84"/>
      <line x1="782.7892223046135" x2="782.7892223046135" y1="79.75" y2="84"/>
      <line x1="803.4801804580294" x2="803.4801804580294" y1="79.75" y2="84"/>
      <line x1="825.0252498584013" x2="825.0252498584013" y1="79.75" y2="84"/>
      <line x1="847.4842934742155" x2="847.4842934742155" y1="79.75" y2="84"/>
      <line x1="870.923060423249" x2="870.923060423249" y1="79.75" y2="84"/>
      <line x1="895.4139885861125" x2="895.4139885861125" y1="79.75" y2="84"/>
      <line x1="921.0370674238612" x2="921.0370674238612" y1="79.75" y2="84"/>
      <line x1="947.8808892293766" x2="947.8808892293766" y1="79.75" y2="84"/>
      <line x1="976.0438883566461" x2="976.0438883566461" y1="79.75" y2="84"/>
    </g>
    <g id="lbt-labels" style="font-size:10;font-family:Helvetica Neue" text-anchor="middle">
      <text x="83.95217716102314" y="98">1</text>
      <text x="121.8636664217931" y="98">2</text>
      <text x="164.6470822260006" y="98">3</text>
      <text x="213.55850853704953" y="98">4</text>
      <text x="270.3781900422308" y="98">5</text>
      <text x="337.72017363237836" y="98">6</text>
      <text x="419.5946305249175" y="98">7</text>
      <text x="522.5064063075022" y="98">8</text>
      <text x="657.8138865137336" y="98">9</text>
      <text x="847.4842934742155" y="98">10</text>
      <text x="50.0" y="98">0</text>
    </g>
    <g id="lbt-title" style="font-size:12;font-family:CMU Serif" text-anchor="start">
      <text x="50" y="75">Time to launch [Gyr]</text>
    </g>
  </g>
  <g id="distmod-scale">
    <line style="stroke:black;stroke-width:0.5" x1="50" x2="980" y1="120" y2="120"/>
    <g id="distmod-majticks" stroke="black" stroke-width="0.5">
      <line x1="75.35144532097272" x2="75.35144532097272" y1="119.75" y2="128"/>
      <line x1="89.34907880738447" x2="89.34907880738447" y1="119.75" y2="128"/>
      <line x1="110.52545881264994" x2="110.52545881264994" y1="119.75" y2="128"/>
      <line x1="142.057777439627" x2="142.057777439627" y1="119.75" y2="128"/>
      <line x1="188.25192845929823" x2="188.25192845929823" y1="119.75" y2="128"/>
      <line x1="255.00911724281215" x2="255.00911724281215" y1="119.75" y2="128"/>
      <line x1="350.7388080384276" x2="350.7388080384276" y1="119.75" y2="128"/>
      <line x1="488.02000669892203" x2="488.02000669892203" y1="119.75" y2="128"/>
      <line x1="686.2998466375317" x2="686.2998466375317" y1="119.75" y2="128"/>
      <line x1="975.9025220179361" x2="975.9025220179361" y1="119.75" y2="128"/>
    </g>
    <g id="distmod-medticks" stroke="black" stroke-width="0.5">
      <line x1="75.35144532097272" x2="75.35144532097272" y1="119.75" y2="126"/>
      <line x1="81.61520520315865" x2="81.61520520315865" y1="119.75" y2="126"/>
      <line x1="89.34907880738447" x2="89.34907880738447" y1="119.75" y2="126"/>
      <line x1="98.86419028379092" x2="98.86419028379092" y1="119.75" y2="126"/>
      <line x1="110.52545881264994" x2="110.52545881264994" y1="119.75" y2="126"/>
      <line x1="124.75844045791003" x2="124.75844045791003" y1="119.75" y2="126"/>
      <line x1="142.057777439627" x2="142.057777439627" y1="119.75" y2="126"/>
      <line x1="162.99849501377764" x2="162.99849501377764" y1="119.75" y2="126"/>
      <line x1="188.25192845929823" x2="188.25192845929823" y1="119.75" y2="126"/>
      <line x1="218.608398373863" x2="218.608398373863" y1="119.75" y2="126"/>
      <line x1="255.00911724281215" x2="255.00911724281215" y1="119.75" y2="126"/>
      <line x1="298.5898570781356" x2="298.5898570781356" y1="119.75" y2="126"/>
      <line x1="350.7388080384276" x2="350.7388080384276" y1="119.75" y2="126"/>
      <line x1="413.17083227521766" x2="413.17083227521766" y1="119.75" y2="126"/>
      <line x1="488.02000669892203" x2="488.02000669892203" y1="119.75" y2="126"/>
      <line x1="577.9521822582869" x2="577.9521822582869" y1="119.75" y2="126"/>
      <line x1="686.2998466375317" x2="686.2998466375317" y1="119.75" y2="126"/>
      <line x1="817.2229806554408" x2="817.2229806554408" y1="119.75" y2="126"/>
    </g>
    <g id="distmod-minticks" stroke="black" stroke-width="0.5">
      <line x1="75.35144532097272" x2="75.35144532097272" y1="119.75" y2="124"/>
      <line x1="76.4998705967275" x2="76.4998705967275" y1="119.75" y2="124"/>
      <line x1="77.69839367478778" x2="77.69839367478778" y1="119.75" y2="124"/>
      <line x1="78.94904415835003" x2="78.94904415835003" y1="119.75" y2="124"/>
      <line x1="80.25392228943629" x2="80.25392228943629" y1="119.75" y2="124"/>
      <line x1="81.61520520315895" x2="81.61520520315895" y1="119.75" y2="124"/>
      <line x1="83.03514060915273" x2="83.03514060915273" y1="119.75" y2="124"/>
      <line x1="84.51605122871618" x2="84.51605122871618" y1="119.75" y2="124"/>
      <line x1="86.06034197237318" x2="86.06034197237318" y1="119.75" y2="124"/>
      <line x1="87.67049683934181" x2="87.67049683934181" y1="119.75" y2="124"/>
      <line x1="89.34907880738467" x2="89.34907880738467" y1="119.75" y2="124"/>
      <line x1="91.09874107416017" x2="91.09874107416017" y1="119.75" y2="124"/>
      <line x1="92.9222142878834" x2="92.9222142878834" y1="119.75" y2="124"/>
      <line x1="94.82232207119678" x2="94.82232207119678" y1="119.75" y2="124"/>
      <line x1="96.80197987516391" x2="96.80197987516391" y1="119.75" y2="124"/>
      <line x1="98.86419028379136" x2="98.86419028379136" y1="119.75" y2="124"/>
      <line x1="101.01205508221028" x2="101.01205508221028" y1="119.75" y2="124"/>
      <line x1="103.24876693955551" x2="103.24876693955551" y1="119.75" y2="124"/>
      <line x1="105.5776239152967" x2="105.5776239152967" y1="119.75" y2="124"/>
      <line x1="108.00202099776592" x2="108.00202099776592" y1="119.75" y2="124"/>
      <line x1="110.52545881265053" x2="110.52545881265053" y1="119.75" y2="124"/>
      <line x1="113.15154596985685" x2="113.15154596985685" y1="119.75" y2="124"/>
      <line x1="115.8840002782894" x2="115.8840002782894" y1="119.75" y2="124"/>
      <line x1="118.72664796721944" x2="118.72664796721944" y1="119.75" y2="124"/>
      <line x1="121.6834399131174" x2="121.6834399131174" y1="119.75" y2="124"/>
      <line x1="124.75844045791136" x2="124.75844045791136" y1="119.75" y2="124"/>
      <line x1="127.95584220395003" x2="127.95584220395003" y1="119.75" y2="124"/>
      <line x1="131.2799566858301" x2="131.2799566858301" y1="119.75" y2="124"/>
      <line x1="134.73523856901784" x2="134.73523856901784" y1="119.75" y2="124"/>
      <line x1="138.3262697103043" x2="138.3262697103043" y1="119.75" y2="124"/>
      <line x1="142.05777743962886" x2="142.05777743962886" y1="119.75" y2="124"/>
      <line x1="145.93463381237274" x2="145.93463381237274" y1="119.75" y2="124"/>
      <line x1="149.96186722161252" x2="149.96186722161252" y1="119.75" y2="124"/>
      <line x1="154.1446609029253" x2="154.1446609029253" y1="119.75" y2="124"/>
      <line x1="158.4883630867771" x2="158.4883630867771" y1="119.75" y2="124"/>
      <line x1="162.99849501377986" x2="162.99849501377986" y1="119.75" y2="124"/>
      <line x1="167.68075705205362" x2="167.68075705205362" y1="119.75" y2="124"/>
      <line x1="172.5410439794178" x2="172.5410439794178" y1="119.75" y2="124"/>
      <line x1="177.58543593976324" x2="177.58543593976324" y1="119.75" y2="124"/>
      <line x1="182.82022907623974" x2="182.82022907623974" y1="119.75" y2="124"/>
      <line x1="188.25192845930184" x2="188.25192845930184" y1="119.75" y2="124"/>
      <line x1="193.88727479820653" x2="193.88727479820653" y1="119.75" y2="124"/>
      <line x1="199.7332348638211" x2="199.7332348638211" y1="119.75" y2="124"/>
      <line x1="205.79703369062113" x2="205.79703369062113" y1="119.75" y2="124"/>
      <line x1="212.08616865619825" x2="212.08616865619825" y1="119.75" y2="124"/>
      <line x1="218.60839837386723" x2="218.60839837386723" y1="119.75" y2="124"/>
      <line x1="225.37178016071545" x2="225.37178016071545" y1="119.75" y2="124"/>
      <line x1="232.3846796044815" x2="232.3846796044815" y1="119.75" y2="124"/>
      <line x1="239.65579203646368" x2="239.65579203646368" y1="119.75" y2="124"/>
      <line x1="247.19414230547338" x2="247.19414230547338" y1="119.75" y2="124"/>
      <line x1="255.00911724281428" x2="255.00911724281428" y1="119.75" y2="124"/>
      <line x1="263.11049353891497" x2="263.11049353891497" y1="119.75" y2="124"/>
      <line x1="271.5084466912781" x2="271.5084466912781" y1="119.75" y2="124"/>
      <line x1="280.2135520632254" x2="280.2135520632254" y1="119.75" y2="124"/>
      <line x1="289.23685609874565" x2="289.23685609874565" y1="119.75" y2="124"/>
      <line x1="298.5898570781424" x2="298.5898570781424" y1="119.75" y2="124"/>
      <line x1="308.2845522754808" x2="308.2845522754808" y1="119.75" y2="124"/>
      <line x1="318.33343954764115" x2="318.33343954764115" y1="119.75" y2="124"/>
      <line x1="328.7495954242737" x2="328.7495954242737" y1="119.75" y2="124"/>
      <line x1="339.54663859364564" x2="339.54663859364564" y1="119.75" y2="124"/>
      <line x1="350.7388080384373" x2="350.7388080384373" y1="119.75" y2="124"/>
      <line x1="362.3409618897741" x2="362.3409618897741" y1="119.75" y2="124"/>
      <line x1="374.3686447142608" x2="374.3686447142608" y1="119.75" y2="124"/>
      <line x1="386.8380777911281" x2="386.8380777911281" y1="119.75" y2="124"/>
      <line x1="399.7662250994852" x2="399.7662250994852" y1="119.75" y2="124"/>
      <line x1="413.1708322752299" x2="413.1708322752299" y1="119.75" y2="124"/>
      <line x1="427.07042690873453" x2="427.07042690873453" y1="119.75" y2="124"/>
      <line x1="441.48440414701247" x2="441.48440414701247" y1="119.75" y2="124"/>
      <line x1="456.4330324675993" x2="456.4330324675993" y1="119.75" y2="124"/>
      <line x1="471.9375151995964" x2="471.9375151995964" y1="119.75" y2="124"/>
      <line x1="488.02000669893795" x2="488.02000669893795" y1="119.75" y2="124"/>
      <line x1="504.7036953295572" x2="504.7036953295572" y1="119.75" y2="124"/>
      <line x1="522.0128228427347" x2="522.0128228427347" y1="119.75" y2="124"/>
      <line x1="539.9727475586543" x2="539.9727475586543" y1="119.75" y2="124"/>
      <line x1="558.6099633935537" x2="558.6099633935537" y1="119.75" y2="124"/>
      <line x1="577.952182258309" x2="577.952182258309" y1="119.75" y2="124"/>
      <line x1="598.0283919840595" x2="598.0283919840595" y1="119.75" y2="124"/>
      <line x1="618.868876582562" x2="618.868876582562" y1="119.75" y2="124"/>
      <line x1="640.5053018929972" x2="640.5053018929972" y1="119.75" y2="124"/>
      <line x1="662.9707661062716" x2="662.9707661062716" y1="119.75" y2="124"/>
      <line x1="686.2998466375582" x2="686.2998466375582" y1="119.75" y2="124"/>
      <line x1="710.528705925577" x2="710.528705925577" y1="119.75" y2="124"/>
      <line x1="735.6951029178223" x2="735.6951029178223" y1="119.75" y2="124"/>
      <line x1="761.8384899469701" x2="761.8384899469701" y1="119.75" y2="124"/>
      <line x1="789.0000914228275" x2="789.0000914228275" y1="119.75" y2="124"/>
      <line x1="817.2229806554742" x2="817.2229806554742" y1="119.75" y2="124"/>
      <line x1="846.5521188613134" x2="846.5521188613134" y1="119.75" y2="124"/>
      <line x1="877.0344851798857" x2="877.0344851798857" y1="119.75" y2="124"/>
      <line x1="908.7191402431727" x2="908.7191402431727" y1="119.75" y2="124"/>
      <line x1="941.6573356658273" x2="941.6573356658273" y1="119.75" y2="124"/>
    </g>
    <g id="distmod-labels" style="font-size:10;font-family:Helvetica Neue" text-anchor="middle">
      <text x="75.35144532097272" y="138">37</text>
      <text x="89.34907880738447" y="138">38</text>
      <text x="110.52545881264994" y="138">39</text>
      <text x="142.057777439627" y="138">40</text>
      <text x="188.25192845929823" y="138">41</text>
      <text x="255.00911724281215" y="138">42</text>
      <text x="350.7388080384276" y="138">43</text>
      <text x="488.02000669892203" y="138">44</text>
      <text x="686.2998466375317" y="138">45</text>
      <text x="975.9025220179361" y="138">46</text>
    </g>
    <g id="distmod-title" style="font-size:12;font-family:CMU Serif" text-anchor="start">
      <text x="50" y="115">Distance modulus</text>
    </g>
  </g>
  <g id="size-scale">
    <line style="stroke:black;stroke-width:0.5" x1="50" x2="980" y1="160" y2="160"/>
    <g id="size-majticks" stroke="black" stroke-width="0.5">
      <line x1="73.01105313383883" x2="73.01105313383883" y1="159.75" y2="168"/>
      <line x1="99.15260500406507" x2="99.15260500406507" y1="159.75" y2="168"/>
      <line x1="129.33066348360023" x2="129.33066348360023" y1="159.75" y2="168"/>
      <line x1="164.92614841966935" x2="164.92614841966935" y1="159.75" y2="168"/>
      <line x1="208.20900343514762" x2="208.20900343514762" y1="159.75" y2="168"/>
      <line x1="263.3479641202768" x2="263.3479641202768" y1="159.75" y2="168"/>
      <line x1="339.53085327047927" x2="339.53085327047927" y1="159.75" y2="168"/>
      <line x1="466.44965619336955" x2="466.44965619336955" y1="159.75" y2="168"/>
      <line x1="599.5435652317788" x2="599.5435652317788" y1="159.75" y2="168"/>
      <line x1="652.2543039198463" x2="652.2543039198463" y1="159.75" y2="168"/>
      <line x1="693.1630176136167" x2="693.1630176136167" y1="159.75" y2="168"/>
      <line x1="905.247963204273" x2="905.247963204273" y1="159.75" y2="168"/>
      <line x1="963.8067314099853" x2="963.8067314099853" y1="159.75" y2="168"/>
    </g>
    <g id="size-medticks" stroke="black" stroke-width="0.5">
      <line x1="73.01105313383883" x2="73.01105313383883" y1="159.75" y2="166"/>
      <line x1="85.64207863809409" x2="85.64207863809409" y1="159.75" y2="166"/>
      <line x1="99.1526050040651" x2="99.1526050040651" y1="159.75" y2="166"/>
      <line x1="113.66520287903252" x2="113.66520287903252" y1="159.75" y2="166"/>
      <line x1="129.33066348360023" x2="129.33066348360023" y1="159.75" y2="166"/>
      <line x1="146.33753528181703" x2="146.33753528181703" y1="159.75" y2="166"/>
      <line x1="164.9261484196694" x2="164.9261484196694" y1="159.75" y2="166"/>
      <line x1="185.40990907653799" x2="185.40990907653799" y1="159.75" y2="166"/>
      <line x1="208.20900343514768" x2="208.20900343514768" y1="159.75" y2="166"/>
      <line x1="233.906516798449" x2="233.906516798449" y1="159.75" y2="166"/>
      <line x1="263.34796412027686" x2="263.34796412027686" y1="159.75" y2="166"/>
      <line x1="297.833207048385" x2="297.833207048385" y1="159.75" y2="166"/>
      <line x1="339.53085327047927" x2="339.53085327047927" y1="159.75" y2="166"/>
      <line x1="392.53658679067445" x2="392.53658679067445" y1="159.75" y2="166"/>
      <line x1="466.4496561933703" x2="466.4496561933703" y1="159.75" y2="166"/>
      <line x1="599.5435652317785" x2="599.5435652317785" y1="159.75" y2="166"/>
    </g>
    <g id="size-minticks" stroke="black" stroke-width="0.5">
      <line x1="73.01105313383883" x2="73.01105313383883" y1="159.75" y2="164"/>
      <line x1="75.47201504184702" x2="75.47201504184702" y1="159.75" y2="164"/>
      <line x1="77.96480962313409" x2="77.96480962313409" y1="159.75" y2="164"/>
      <line x1="80.49021201760392" x2="80.49021201760392" y1="159.75" y2="164"/>
      <line x1="83.0490228553703" x2="83.0490228553703" y1="159.75" y2="164"/>
      <line x1="85.64207863809408" x2="85.64207863809408" y1="159.75" y2="164"/>
      <line x1="88.27024931323587" x2="88.27024931323587" y1="159.75" y2="164"/>
      <line x1="90.93443059559695" x2="90.93443059559695" y1="159.75" y2="164"/>
      <line x1="93.63556154044704" x2="93.63556154044704" y1="159.75" y2="164"/>
      <line x1="96.3746141180958" x2="96.3746141180958" y1="159.75" y2="164"/>
      <line x1="99.15260500406507" x2="99.15260500406507" y1="159.75" y2="164"/>
      <line x1="101.97059099512752" x2="101.97059099512752" y1="159.75" y2="164"/>
      <line x1="104.82967163792895" x2="104.82967163792895" y1="159.75" y2="164"/>
      <line x1="107.73099180786375" x2="107.73099180786375" y1="159.75" y2="164"/>
      <line x1="110.6757536718745" x2="110.6757536718745" y1="159.75" y2="164"/>
      <line x1="113.66520287903249" x2="113.66520287903249" y1="159.75" y2="164"/>
      <line x1="116.70064966244264" x2="116.70064966244264" y1="159.75" y2="164"/>
      <line x1="119.78345490407219" x2="119.78345490407219" y1="159.75" y2="164"/>
      <line x1="122.91505164141064" x2="122.91505164141064" y1="159.75" y2="164"/>
      <line x1="126.09693240930132" x2="126.09693240930132" y1="159.75" y2="164"/>
      <line x1="129.33066348360018" x2="129.33066348360018" y1="159.75" y2="164"/>
      <line x1="132.61788762437146" x2="132.61788762437146" y1="159.75" y2="164"/>
      <line x1="135.96032953869755" x2="135.96032953869755" y1="159.75" y2="164"/>
      <line x1="139.35980219971952" x2="139.35980219971952" y1="159.75" y2="164"/>
      <line x1="142.81820055328348" x2="142.81820055328348" y1="159.75" y2="164"/>
      <line x1="146.33753528181694" x2="146.33753528181694" y1="159.75" y2="164"/>
      <line x1="149.91990753150057" x2="149.91990753150057" y1="159.75" y2="164"/>
      <line x1="153.56754577458042" x2="153.56754577458042" y1="159.75" y2="164"/>
      <line x1="157.2827913098446" x2="157.2827913098446" y1="159.75" y2="164"/>
      <line x1="161.06811722772076" x2="161.06811722772076" y1="159.75" y2="164"/>
      <line x1="164.92614841966926" x2="164.92614841966926" y1="159.75" y2="164"/>
      <line x1="168.85965095512307" x2="168.85965095512307" y1="159.75" y2="164"/>
      <line x1="172.87156517361916" x2="172.87156517361916" y1="159.75" y2="164"/>
      <line x1="176.96500026994187" x2="176.96500026994187" y1="159.75" y2="164"/>
      <line x1="181.1432747804844" x2="181.1432747804844" y1="159.75" y2="164"/>
      <line x1="185.409909076538" x2="185.409909076538" y1="159.75" y2="164"/>
      <line x1="189.7686484071331" x2="189.7686484071331" y1="159.75" y2="164"/>
      <line x1="194.22350139259996" x2="194.22350139259996" y1="159.75" y2="164"/>
      <line x1="198.77873846776782" x2="198.77873846776782" y1="159.75" y2="164"/>
      <line x1="203.43893853964602" x2="203.43893853964602" y1="159.75" y2="164"/>
      <line x1="208.2090034351475" x2="208.2090034351475" y1="159.75" y2="164"/>
      <line x1="213.0942006429092" x2="213.0942006429092" y1="159.75" y2="164"/>
      <line x1="218.10018915719635" x2="218.10018915719635" y1="159.75" y2="164"/>
      <line x1="223.2330870421299" x2="223.2330870421299" y1="159.75" y2="164"/>
      <line x1="228.49948079567145" x2="228.49948079567145" y1="159.75" y2="164"/>
      <line x1="233.90651679844868" x2="233.90651679844868" y1="159.75" y2="164"/>
      <line x1="239.46192802273592" x2="239.46192802273592" y1="159.75" y2="164"/>
      <line x1="245.1741563837868" x2="245.1741563837868" y1="159.75" y2="164"/>
      <line x1="251.05237665855623" x2="251.05237665855623" y1="159.75" y2="164"/>
      <line x1="257.1066398966818" x2="257.1066398966818" y1="159.75" y2="164"/>
      <line x1="263.34796412027663" x2="263.34796412027663" y1="159.75" y2="164"/>
      <line x1="269.78847398548027" x2="269.78847398548027" y1="159.75" y2="164"/>
      <line x1="276.44156246889884" x2="276.44156246889884" y1="159.75" y2="164"/>
      <line x1="283.32205189842125" x2="283.32205189842125" y1="159.75" y2="164"/>
      <line x1="290.4464532481849" x2="290.4464532481849" y1="159.75" y2="164"/>
      <line x1="297.8332070483848" x2="297.8332070483848" y1="159.75" y2="164"/>
      <line x1="305.50300970384757" x2="305.50300970384757" y1="159.75" y2="164"/>
      <line x1="313.4792176885083" x2="313.4792176885083" y1="159.75" y2="164"/>
      <line x1="321.7883334597797" x2="321.7883334597797" y1="159.75" y2="164"/>
      <line x1="330.4606206637002" x2="330.4606206637002" y1="159.75" y2="164"/>
      <line x1="339.5308532704773" x2="339.5308532704773" y1="159.75" y2="164"/>
      <line x1="349.0392980341506" x2="349.0392980341506" y1="159.75" y2="164"/>
      <line x1="359.03301426240114" x2="359.03301426240114" y1="159.75" y2="164"/>
      <line x1="369.56745177273245" x2="369.56745177273245" y1="159.75" y2="164"/>
      <line x1="380.70872130613844" x2="380.70872130613844" y1="159.75" y2="164"/>
      <line x1="392.53658679067365" x2="392.53658679067365" y1="159.75" y2="164"/>
      <line x1="405.1486808638942" x2="405.1486808638942" y1="159.75" y2="164"/>
      <line x1="418.6665163162028" x2="418.6665163162028" y1="159.75" y2="164"/>
      <line x1="433.2443088243492" x2="433.2443088243492" y1="159.75" y2="164"/>
      <line x1="449.08256452752727" x2="449.08256452752727" y1="159.75" y2="164"/>
      <line x1="466.4496561933691" x2="466.4496561933691" y1="159.75" y2="164"/>
      <line x1="485.71838580628895" x2="485.71838580628895" y1="159.75" y2="164"/>
      <line x1="507.43210800843525" x2="507.43210800843525" y1="159.75" y2="164"/>
      <line x1="532.4364715777557" x2="532.4364715777557" y1="159.75" y2="164"/>
      <line x1="562.1788275730083" x2="562.1788275730083" y1="159.75" y2="164"/>
      <line x1="599.5435652317765" x2="599.5435652317765" y1="159.75" y2="164"/>
    </g>
    <g id="size-labels" style="font-size:10;font-family:Helvetica Neue" text-anchor="middle">
      <text x="73.01105313383883" y="178">0.1</text>
      <text x="99.15260500406507" y="178">0.2</text>
      <text x="129.33066348360023" y="178">0.3</text>
      <text x="164.92614841966935" y="178">0.4</text>
      <text x="208.20900343514762" y="178">0.5</text>
      <text x="263.3479641202768" y="178">0.6</text>
      <text x="339.53085327047927" y="178">0.7</text>
      <text x="466.44965619336955" y="178">0.8</text>
      <text x="599.5435652317788" y="178">0.85</text>
      <text x="652.2543039198463" y="178">0.86</text>
      <text x="693.1630176136167" y="178">0.865</text>
      <text x="905.247963204273" y="178">0.865</text>
      <text x="963.8067314099853" y="178">0.86</text>
    </g>
    <g id="size-title" style="font-size:12;font-family:CMU Serif" text-anchor="start">
      <text x="50" y="155">VIS pixel scale [kpc] (transverse proper size subtending 0.1 arcsec)</text>
    </g>
  </g>
</svg>
