<?xml version="1.0" encoding="utf-8" ?>
<svg baseProfile="full" height="100%" version="1.1" width="100%" xmlns="http://www.w3.org/2000/svg" xmlns:ev="http://www.w3.org/2001/xml-events" xmlns:xlink="http://www.w3.org/1999/xlink">
  <defs/>
  <rect fill="none" height="200" rx="10" ry="10" stroke="black" width="1000" x="10" y="10"/>
  <g id="redshift-scale" stroke="black" stroke-width="1">
    <line x1="50" x2="950" y1="50" y2="50"/>
    <g id="redshift-majticks" stroke-width="1">
      <line x1="50.0" x2="50.0" y1="49.5" y2="58"/>
      <line x1="95.0" x2="95.0" y1="49.5" y2="58"/>
      <line x1="140.0" x2="140.0" y1="49.5" y2="58"/>
      <line x1="185.00000000000003" x2="185.00000000000003" y1="49.5" y2="58"/>
      <line x1="230.0" x2="230.0" y1="49.5" y2="58"/>
      <line x1="275.0" x2="275.0" y1="49.5" y2="58"/>
      <line x1="320.00000000000006" x2="320.00000000000006" y1="49.5" y2="58"/>
      <line x1="365.00000000000006" x2="365.00000000000006" y1="49.5" y2="58"/>
      <line x1="410.0" x2="410.0" y1="49.5" y2="58"/>
      <line x1="455.0" x2="455.0" y1="49.5" y2="58"/>
      <line x1="500.0" x2="500.0" y1="49.5" y2="58"/>
      <line x1="545.0" x2="545.0" y1="49.5" y2="58"/>
      <line x1="590.0000000000001" x2="590.0000000000001" y1="49.5" y2="58"/>
      <line x1="635.0" x2="635.0" y1="49.5" y2="58"/>
      <line x1="680.0000000000001" x2="680.0000000000001" y1="49.5" y2="58"/>
      <line x1="725.0" x2="725.0" y1="49.5" y2="58"/>
      <line x1="770.0" x2="770.0" y1="49.5" y2="58"/>
      <line x1="815.0000000000001" x2="815.0000000000001" y1="49.5" y2="58"/>
      <line x1="860.0" x2="860.0" y1="49.5" y2="58"/>
      <line x1="905.0000000000001" x2="905.0000000000001" y1="49.5" y2="58"/>
      <line x1="950.0" x2="950.0" y1="49.5" y2="58"/>
    </g>
    <g id="redshift-minticks">
      <line x1="50.0" x2="50.0" y1="50" y2="54"/>
      <line x1="72.5" x2="72.5" y1="50" y2="54"/>
      <line x1="95.0" x2="95.0" y1="50" y2="54"/>
      <line x1="117.50000000000001" x2="117.50000000000001" y1="50" y2="54"/>
      <line x1="140.0" x2="140.0" y1="50" y2="54"/>
      <line x1="162.5" x2="162.5" y1="50" y2="54"/>
      <line x1="185.00000000000003" x2="185.00000000000003" y1="50" y2="54"/>
      <line x1="207.50000000000003" x2="207.50000000000003" y1="50" y2="54"/>
      <line x1="230.0" x2="230.0" y1="50" y2="54"/>
      <line x1="252.5" x2="252.5" y1="50" y2="54"/>
      <line x1="275.0" x2="275.0" y1="50" y2="54"/>
      <line x1="297.5" x2="297.5" y1="50" y2="54"/>
      <line x1="320.00000000000006" x2="320.00000000000006" y1="50" y2="54"/>
      <line x1="342.5" x2="342.5" y1="50" y2="54"/>
      <line x1="365.00000000000006" x2="365.00000000000006" y1="50" y2="54"/>
      <line x1="387.5" x2="387.5" y1="50" y2="54"/>
      <line x1="410.0" x2="410.0" y1="50" y2="54"/>
      <line x1="432.50000000000006" x2="432.50000000000006" y1="50" y2="54"/>
      <line x1="455.0" x2="455.0" y1="50" y2="54"/>
      <line x1="477.50000000000006" x2="477.50000000000006" y1="50" y2="54"/>
      <line x1="500.0" x2="500.0" y1="50" y2="54"/>
      <line x1="522.5" x2="522.5" y1="50" y2="54"/>
      <line x1="545.0" x2="545.0" y1="50" y2="54"/>
      <line x1="567.5000000000001" x2="567.5000000000001" y1="50" y2="54"/>
      <line x1="590.0000000000001" x2="590.0000000000001" y1="50" y2="54"/>
      <line x1="612.5" x2="612.5" y1="50" y2="54"/>
      <line x1="635.0" x2="635.0" y1="50" y2="54"/>
      <line x1="657.5" x2="657.5" y1="50" y2="54"/>
      <line x1="680.0000000000001" x2="680.0000000000001" y1="50" y2="54"/>
      <line x1="702.5000000000001" x2="702.5000000000001" y1="50" y2="54"/>
      <line x1="725.0" x2="725.0" y1="50" y2="54"/>
      <line x1="747.5" x2="747.5" y1="50" y2="54"/>
      <line x1="770.0" x2="770.0" y1="50" y2="54"/>
      <line x1="792.5000000000001" x2="792.5000000000001" y1="50" y2="54"/>
      <line x1="815.0000000000001" x2="815.0000000000001" y1="50" y2="54"/>
      <line x1="837.5" x2="837.5" y1="50" y2="54"/>
      <line x1="860.0" x2="860.0" y1="50" y2="54"/>
      <line x1="882.5" x2="882.5" y1="50" y2="54"/>
      <line x1="905.0000000000001" x2="905.0000000000001" y1="50" y2="54"/>
      <line x1="927.5000000000001" x2="927.5000000000001" y1="50" y2="54"/>
      <line x1="950.0" x2="950.0" y1="50" y2="54"/>
    </g>
    <g id="redshift-labels" style="font-size:12;font-family:CMU Serif, Arial;stroke:none" text-anchor="middle">
      <text x="50.0" y="70">0.0</text>
      <text x="140.0" y="70">0.2</text>
      <text x="230.0" y="70">0.4</text>
      <text x="320.00000000000006" y="70">0.6</text>
      <text x="410.0" y="70">0.8</text>
      <text x="500.0" y="70">1.0</text>
      <text x="590.0000000000001" y="70">1.2</text>
      <text x="680.0000000000001" y="70">1.4</text>
      <text x="770.0" y="70">1.6</text>
      <text x="860.0" y="70">1.8</text>
      <text x="950.0" y="70">2.0</text>
    </g>
    <g id="redshift-title" style="font-size:14;font-family:CMU Serif, Arial;stroke:none" text-anchor="start">
      <text x="50" y="42">Redshift</text>
    </g>
  </g>
  <g id="age-scale" stroke="black" stroke-width="1">
    <line x1="50" x2="950" y1="100" y2="100"/>
    <g id="age-majticks" stroke-width="1">
      <line x1="778.687737957891" x2="778.687737957891" y1="99.5" y2="108"/>
      <line x1="608.3746303029707" x2="608.3746303029707" y1="99.5" y2="108"/>
      <line x1="485.0315650761704" x2="485.0315650761704" y1="99.5" y2="108"/>
      <line x1="390.24530355351146" x2="390.24530355351146" y1="99.5" y2="108"/>
      <line x1="314.26609624691" x2="314.26609624691" y1="99.5" y2="108"/>
      <line x1="251.41589188406934" x2="251.41589188406934" y1="99.5" y2="108"/>
      <line x1="198.15021974278181" x2="198.15021974278181" y1="99.5" y2="108"/>
      <line x1="152.13610793110115" x2="152.13610793110115" y1="99.5" y2="108"/>
      <line x1="111.77235935959376" x2="111.77235935959376" y1="99.5" y2="108"/>
      <line x1="75.92202240957327" x2="75.92202240957327" y1="99.5" y2="108"/>
    </g>
    <g id="age-minticks">
      <line x1="892.3347307208767" x2="892.3347307208767" y1="100" y2="104"/>
      <line x1="778.687737957891" x2="778.687737957891" y1="100" y2="104"/>
      <line x1="685.92846420624" x2="685.92846420624" y1="100" y2="104"/>
      <line x1="608.3746303029707" x2="608.3746303029707" y1="100" y2="104"/>
      <line x1="542.2716994104187" x2="542.2716994104187" y1="100" y2="104"/>
      <line x1="485.0315650761704" x2="485.0315650761704" y1="100" y2="104"/>
      <line x1="434.80782966398215" x2="434.80782966398215" y1="100" y2="104"/>
      <line x1="390.24530355351146" x2="390.24530355351146" y1="100" y2="104"/>
      <line x1="350.3252498755328" x2="350.3252498755328" y1="100" y2="104"/>
      <line x1="314.26609624691" x2="314.26609624691" y1="100" y2="104"/>
      <line x1="281.45759117147793" x2="281.45759117147793" y1="100" y2="104"/>
      <line x1="251.41589188406934" x2="251.41589188406934" y1="100" y2="104"/>
      <line x1="223.7521771038466" x2="223.7521771038466" y1="100" y2="104"/>
      <line x1="198.15021974278181" x2="198.15021974278181" y1="100" y2="104"/>
      <line x1="174.35010591941807" x2="174.35010591941807" y1="100" y2="104"/>
      <line x1="152.13610793110115" x2="152.13610793110115" y1="100" y2="104"/>
      <line x1="131.32764890927763" x2="131.32764890927763" y1="100" y2="104"/>
      <line x1="111.77235935959376" x2="111.77235935959376" y1="100" y2="104"/>
      <line x1="93.34074620704246" x2="93.34074620704246" y1="100" y2="104"/>
      <line x1="75.92202240957327" x2="75.92202240957327" y1="100" y2="104"/>
      <line x1="59.42082568462939" x2="59.42082568462939" y1="100" y2="104"/>
    </g>
    <g id="age-labels" style="font-size:12;font-family:CMU Serif, Arial;stroke:none" text-anchor="middle">
      <text x="778.687737957891" y="120">4</text>
      <text x="485.0315650761704" y="120">6</text>
      <text x="314.26609624691" y="120">8</text>
      <text x="198.15021974278181" y="120">10</text>
      <text x="111.77235935959376" y="120">12</text>
    </g>
    <g id="age-title" style="font-size:14;font-family:CMU Serif, Arial;stroke:none" text-anchor="start">
      <text x="50" y="92">Age [Gyr]</text>
    </g>
  </g>
  <g id="size-scale" stroke="black" stroke-width="1">
    <line x1="50" x2="950" y1="150" y2="150"/>
    <g id="size-majticks" stroke-width="1">
      <line x1="97.56703710070812" x2="97.56703710070812" y1="149.5" y2="158"/>
      <line x1="161.21885330935743" x2="161.21885330935743" y1="149.5" y2="158"/>
      <line x1="256.4657717293002" x2="256.4657717293002" y1="149.5" y2="158"/>
      <line x1="453.0157963161641" x2="453.0157963161641" y1="149.5" y2="158"/>
    </g>
    <g id="size-minticks">
      <line x1="72.26876109726338" x2="72.26876109726338" y1="150" y2="154"/>
      <line x1="126.7716098228389" x2="126.7716098228389" y1="150" y2="154"/>
      <line x1="203.10548719530414" x2="203.10548719530414" y1="150" y2="154"/>
      <line x1="330.19114832626957" x2="330.19114832626957" y1="150" y2="154"/>
      <line x1="471.6629540060872" x2="471.6629540060872" y1="150" y2="154"/>
      <line x1="492.6762335565504" x2="492.6762335565504" y1="150" y2="154"/>
      <line x1="516.87400475267" x2="516.87400475267" y1="150" y2="154"/>
      <line x1="545.6569299093642" x2="545.6569299093642" y1="150" y2="154"/>
      <line x1="581.8163534501085" x2="581.8163534501085" y1="150" y2="154"/>
      <line x1="632.8267457288836" x2="632.8267457288836" y1="150" y2="154"/>
    </g>
    <g id="size-labels" style="font-size:12;font-family:CMU Serif, Arial;stroke:none" text-anchor="middle">
      <text x="97.56703710070812" y="170">0.2</text>
      <text x="161.21885330935743" y="170">0.4</text>
      <text x="256.4657717293002" y="170">0.6</text>
      <text x="453.0157963161641" y="170">0.8</text>
      <text x="581.8163534501085" y="170">0.85</text>
    </g>
    <g id="size-title" style="font-size:14;font-family:CMU Serif, Arial;stroke:none" text-anchor="start">
      <text x="50" y="142">Proper VIS pixel size [kpc]</text>
    </g>
  </g>
</svg>
