<?xml version="1.0" encoding="utf-8" ?>
<svg baseProfile="full" height="100%" version="1.1" width="100%" xmlns="http://www.w3.org/2000/svg" xmlns:ev="http://www.w3.org/2001/xml-events" xmlns:xlink="http://www.w3.org/1999/xlink">
  <defs/>
  <rect fill="none" height="200" rx="10" ry="10" stroke="black" width="1000" x="10" y="10"/>
  <g id="scale" stroke="black" stroke-width="1">
    <line x1="50" x2="950" y1="50" y2="50"/>
    <g id="majticks" stroke-width="1">
      <line x1="50.0" x2="50.0" y1="49.5" y2="56"/>
      <line x1="140.0" x2="140.0" y1="49.5" y2="56"/>
      <line x1="230.0" x2="230.0" y1="49.5" y2="56"/>
      <line x1="320.0" x2="320.0" y1="49.5" y2="56"/>
      <line x1="410.0" x2="410.0" y1="49.5" y2="56"/>
      <line x1="500.0" x2="500.0" y1="49.5" y2="56"/>
      <line x1="590.0" x2="590.0" y1="49.5" y2="56"/>
      <line x1="680.0" x2="680.0" y1="49.5" y2="56"/>
      <line x1="770.0" x2="770.0" y1="49.5" y2="56"/>
      <line x1="860.0" x2="860.0" y1="49.5" y2="56"/>
      <line x1="950.0" x2="950.0" y1="49.5" y2="56"/>
    </g>
    <g id="minticks">
      <line x1="50.0" x2="50.0" y1="50" y2="53"/>
      <line x1="68.0" x2="68.0" y1="50" y2="53"/>
      <line x1="86.0" x2="86.0" y1="50" y2="53"/>
      <line x1="104.0" x2="104.0" y1="50" y2="53"/>
      <line x1="122.0" x2="122.0" y1="50" y2="53"/>
      <line x1="140.0" x2="140.0" y1="50" y2="53"/>
      <line x1="158.0" x2="158.0" y1="50" y2="53"/>
      <line x1="176.0" x2="176.0" y1="50" y2="53"/>
      <line x1="194.0" x2="194.0" y1="50" y2="53"/>
      <line x1="212.0" x2="212.0" y1="50" y2="53"/>
      <line x1="230.0" x2="230.0" y1="50" y2="53"/>
      <line x1="248.0" x2="248.0" y1="50" y2="53"/>
      <line x1="266.0" x2="266.0" y1="50" y2="53"/>
      <line x1="284.0" x2="284.0" y1="50" y2="53"/>
      <line x1="302.0" x2="302.0" y1="50" y2="53"/>
      <line x1="320.0" x2="320.0" y1="50" y2="53"/>
      <line x1="338.0" x2="338.0" y1="50" y2="53"/>
      <line x1="356.0" x2="356.0" y1="50" y2="53"/>
      <line x1="374.0" x2="374.0" y1="50" y2="53"/>
      <line x1="392.0" x2="392.0" y1="50" y2="53"/>
      <line x1="410.0" x2="410.0" y1="50" y2="53"/>
      <line x1="428.0" x2="428.0" y1="50" y2="53"/>
      <line x1="446.0" x2="446.0" y1="50" y2="53"/>
      <line x1="464.0" x2="464.0" y1="50" y2="53"/>
      <line x1="482.0" x2="482.0" y1="50" y2="53"/>
      <line x1="500.0" x2="500.0" y1="50" y2="53"/>
      <line x1="518.0" x2="518.0" y1="50" y2="53"/>
      <line x1="536.0" x2="536.0" y1="50" y2="53"/>
      <line x1="554.0" x2="554.0" y1="50" y2="53"/>
      <line x1="572.0" x2="572.0" y1="50" y2="53"/>
      <line x1="590.0" x2="590.0" y1="50" y2="53"/>
      <line x1="608.0" x2="608.0" y1="50" y2="53"/>
      <line x1="626.0" x2="626.0" y1="50" y2="53"/>
      <line x1="644.0" x2="644.0" y1="50" y2="53"/>
      <line x1="662.0" x2="662.0" y1="50" y2="53"/>
      <line x1="680.0" x2="680.0" y1="50" y2="53"/>
      <line x1="698.0" x2="698.0" y1="50" y2="53"/>
      <line x1="716.0" x2="716.0" y1="50" y2="53"/>
      <line x1="734.0" x2="734.0" y1="50" y2="53"/>
      <line x1="752.0" x2="752.0" y1="50" y2="53"/>
      <line x1="770.0" x2="770.0" y1="50" y2="53"/>
      <line x1="788.0" x2="788.0" y1="50" y2="53"/>
      <line x1="806.0" x2="806.0" y1="50" y2="53"/>
      <line x1="824.0" x2="824.0" y1="50" y2="53"/>
      <line x1="842.0" x2="842.0" y1="50" y2="53"/>
      <line x1="860.0" x2="860.0" y1="50" y2="53"/>
      <line x1="878.0" x2="878.0" y1="50" y2="53"/>
      <line x1="896.0" x2="896.0" y1="50" y2="53"/>
      <line x1="914.0" x2="914.0" y1="50" y2="53"/>
      <line x1="932.0" x2="932.0" y1="50" y2="53"/>
      <line x1="950.0" x2="950.0" y1="50" y2="53"/>
    </g>
    <g id="labels" style="font-size:12;font-family:CMU Serif, Arial;stroke:none" text-anchor="middle">
      <text x="50.0" y="70">0.0</text>
      <text x="140.0" y="70">0.1</text>
      <text x="230.0" y="70">0.2</text>
      <text x="320.0" y="70">0.3</text>
      <text x="410.0" y="70">0.4</text>
      <text x="500.0" y="70">0.5</text>
      <text x="590.0" y="70">0.6</text>
      <text x="680.0" y="70">0.7</text>
      <text x="770.0" y="70">0.8</text>
      <text x="860.0" y="70">0.9</text>
      <text x="950.0" y="70">1.0</text>
    </g>
    <g id="title" style="font-size:12;font-family:CMU Serif, Arial;stroke:none" text-anchor="start">
      <text x="50" y="40">Zero to One</text>
    </g>
  </g>
</svg>
